<svg id="Layer_1" data-name="Layer 1" xmlns="http://www.w3.org/2000/svg" xmlns:xlink="http://www.w3.org/1999/xlink" viewBox="0 0 229 57"><defs><style>.cls-1,.cls-5{fill:#fff;}.cls-2{fill:#1c8adb;}.cls-3{mask:url(#mask);}.cls-4{fill:url(#linear-gradient);}.cls-5{font-size:44px;stroke:#fff;stroke-miterlimit:10;font-family:MyriadPro-Regular, Myriad Pro;}.cls-6{letter-spacing:-0.03em;}</style><mask id="mask" x="0" y="0" width="57" height="57" maskUnits="userSpaceOnUse"><g transform="translate(-8 -46.35)"><g id="a"><circle class="cls-1" cx="36.5" cy="74.85" r="28.5"/></g></g></mask><linearGradient id="linear-gradient" x1="33.74" y1="74.8" x2="1.52" y2="43.64" gradientTransform="matrix(1, 0, 0, -1, 0, 152)" gradientUnits="userSpaceOnUse"><stop offset="0" stop-opacity="0.42"/><stop offset="1" stop-opacity="0"/></linearGradient></defs><circle class="cls-2" cx="28.5" cy="28.5" r="28.5"/><g class="cls-3"><path class="cls-4" d="M36.35,64.52c-6.55,0-13.26,3-20.15,9.52L8.65,81.6c2.44,12,9.89,17.92,19.88,20.76L55.36,75.54c.48-.49,1-1,1.44-1.5-6.46-6-13.06-9.33-19.81-9.51Z" transform="translate(-8 -46.35)"/></g><g class="cls-3"><path class="cls-1" d="M36.35,64.52c-6.55,0-13.26,3-20.15,9.52C29.73,90,43.27,88.53,56.8,74c-6.46-6-13.06-9.33-19.81-9.51Zm0,2.87h.46c4.91.13,9.69,2.56,14.38,6.9-9.82,10.51-19.64,11.54-29.46,0,5-4.72,9.87-6.9,14.62-6.91ZM36.55,69a6.11,6.11,0,0,0-6.1,6.11h0a6.1,6.1,0,0,0,6.1,6.1h0a6.1,6.1,0,0,0,6.1-6.1h0a5.9,5.9,0,0,0-.19-1.51l-5.91,1.51s2.55-3.54,3.59-4.93A6.19,6.19,0,0,0,36.55,69Z" transform="translate(-8 -46.35)"/></g><text class="cls-5" transform="translate(60.7 44.52)"><tspan class="cls-6">F</tspan><tspan x="20.28" y="0">indBack</tspan></text></svg>