<?xml version="1.0" encoding="UTF-8"?>
<svg version="1.1" xmlns="http://www.w3.org/2000/svg" width="1536" height="1024">
<path d="M0 0 C506.88 0 1013.76 0 1536 0 C1536 337.92 1536 675.84 1536 1024 C1029.12 1024 522.24 1024 0 1024 C0 686.08 0 348.16 0 0 Z " fill="#FEF6E7" transform="translate(0,0)"/>
<path d="M0 0 C2.26115271 1.71167679 4.44061767 3.48927618 6.609375 5.31640625 C7.40988281 5.97125 8.21039063 6.62609375 9.03515625 7.30078125 C29.05121904 24.35957193 42.71974055 51.28191125 45.609375 77.31640625 C47.28169766 107.14498026 41.1815773 133.9861944 21.96484375 157.3203125 C20.12906138 159.65537896 18.75533627 161.60716833 17.609375 164.31640625 C18.15464844 164.91066406 18.69992187 165.50492188 19.26171875 166.1171875 C24.08525092 171.41895021 28.71690526 176.82814659 33.2265625 182.3984375 C35.81693829 185.57058621 38.45640031 188.6966662 41.109375 191.81640625 C45.32313401 196.78050042 49.51863756 201.75670563 53.59375 206.8359375 C54.85509677 208.38817625 56.1526416 209.91242808 57.5 211.390625 C61.5512571 216.05714311 62.38001043 219.65523844 61.99609375 225.83203125 C61.2649899 230.52881961 59.50619872 232.50707753 56.046875 235.62890625 C51.55378626 237.83460436 47.53003253 238.33654257 42.609375 237.31640625 C37.90943785 234.71080544 34.63734157 231.38785608 31.296875 227.25390625 C30.8225 226.68027344 30.348125 226.10664062 29.859375 225.515625 C28.43456138 223.7890412 27.02078476 222.05395447 25.609375 220.31640625 C24.84238281 219.37925781 24.07539063 218.44210937 23.28515625 217.4765625 C21.82860186 215.69574825 20.37419029 213.91317932 18.921875 212.12890625 C15.89166091 208.44351074 12.80378726 204.80882179 9.71289062 201.17431641 C5.90441277 196.68767166 2.18073136 192.13827056 -1.515625 187.55859375 C-3.06750356 185.70280564 -4.64415097 183.98647204 -6.390625 182.31640625 C-7.091875 182.703125 -7.793125 183.08984375 -8.515625 183.48828125 C-10.49541454 184.57501355 -12.47870694 185.65538072 -14.46484375 186.73046875 C-16.12084379 187.62811363 -17.77275264 188.53370901 -19.41015625 189.46484375 C-31.79969531 196.21295871 -45.55762638 197.51714023 -59.39428711 197.55664062 C-61.42409503 197.56626855 -63.4528539 197.59732148 -65.48242188 197.62890625 C-90.95345938 197.83701816 -115.68144669 187.46884506 -134.390625 170.31640625 C-135.31488281 169.47335937 -136.23914063 168.6303125 -137.19140625 167.76171875 C-157.62828812 148.25764062 -169.88280027 120.87237369 -170.74414062 92.62963867 C-171.04748267 60.85111203 -158.95514627 33.96923434 -137.203125 11.1328125 C-101.10028365 -25.02017169 -41.64780707 -29.33040008 0 0 Z " fill="#FEF5E6" transform="translate(445.390625,389.68359375)"/>
<path d="M0 0 C2.26115271 1.71167679 4.44061767 3.48927618 6.609375 5.31640625 C7.40988281 5.97125 8.21039063 6.62609375 9.03515625 7.30078125 C29.05121904 24.35957193 42.71974055 51.28191125 45.609375 77.31640625 C47.28169766 107.14498026 41.1815773 133.9861944 21.96484375 157.3203125 C20.12906138 159.65537896 18.75533627 161.60716833 17.609375 164.31640625 C18.15464844 164.91066406 18.69992187 165.50492188 19.26171875 166.1171875 C24.08525092 171.41895021 28.71690526 176.82814659 33.2265625 182.3984375 C35.81693829 185.57058621 38.45640031 188.6966662 41.109375 191.81640625 C45.32313401 196.78050042 49.51863756 201.75670563 53.59375 206.8359375 C54.85509677 208.38817625 56.1526416 209.91242808 57.5 211.390625 C61.5512571 216.05714311 62.38001043 219.65523844 61.99609375 225.83203125 C61.2649899 230.52881961 59.50619872 232.50707753 56.046875 235.62890625 C51.55378626 237.83460436 47.53003253 238.33654257 42.609375 237.31640625 C37.90943785 234.71080544 34.63734157 231.38785608 31.296875 227.25390625 C30.8225 226.68027344 30.348125 226.10664062 29.859375 225.515625 C28.43456138 223.7890412 27.02078476 222.05395447 25.609375 220.31640625 C24.84238281 219.37925781 24.07539063 218.44210937 23.28515625 217.4765625 C21.82860186 215.69574825 20.37419029 213.91317932 18.921875 212.12890625 C15.89166091 208.44351074 12.80378726 204.80882179 9.71289062 201.17431641 C5.90441277 196.68767166 2.18073136 192.13827056 -1.515625 187.55859375 C-3.06750356 185.70280564 -4.64415097 183.98647204 -6.390625 182.31640625 C-7.091875 182.703125 -7.793125 183.08984375 -8.515625 183.48828125 C-10.49541454 184.57501355 -12.47870694 185.65538072 -14.46484375 186.73046875 C-16.12084379 187.62811363 -17.77275264 188.53370901 -19.41015625 189.46484375 C-31.79969531 196.21295871 -45.55762638 197.51714023 -59.39428711 197.55664062 C-61.42409503 197.56626855 -63.4528539 197.59732148 -65.48242188 197.62890625 C-90.95345938 197.83701816 -115.68144669 187.46884506 -134.390625 170.31640625 C-135.31488281 169.47335937 -136.23914063 168.6303125 -137.19140625 167.76171875 C-157.62828812 148.25764062 -169.88280027 120.87237369 -170.74414062 92.62963867 C-171.04748267 60.85111203 -158.95514627 33.96923434 -137.203125 11.1328125 C-101.10028365 -25.02017169 -41.64780707 -29.33040008 0 0 Z M-91.390625 8.31640625 C-92.40769531 8.65542969 -93.42476562 8.99445313 -94.47265625 9.34375 C-115.25572384 16.99780241 -130.59144722 34.23433209 -140.203125 53.69140625 C-148.85829081 74.54795165 -150.14441212 100.24979 -141.54492188 121.39599609 C-132.55024936 142.12098196 -117.48077341 159.53813601 -96.515625 168.62890625 C-94.81744644 169.22135761 -93.10775433 169.7813587 -91.390625 170.31640625 C-89.77800781 170.87134766 -89.77800781 170.87134766 -88.1328125 171.4375 C-66.37313232 178.0017459 -42.06438907 175.95403444 -21.92871094 165.51708984 C-16.21167166 162.38346456 -11.1934203 158.73530465 -6.390625 154.31640625 C-5.55015625 153.56746094 -4.7096875 152.81851563 -3.84375 152.046875 C10.67313428 138.43179717 20.71420442 117.84928295 21.7355957 97.84423828 C22.51426017 70.35120288 16.6784702 47.954079 -2.578125 27.56640625 C-21.26457879 9.68787445 -45.02813372 3.73964559 -70.30859375 4.03515625 C-77.81437301 4.2667089 -84.31670382 5.73088379 -91.390625 8.31640625 Z " fill="#199CA2" transform="translate(445.390625,389.68359375)"/>
<path d="M0 0 C67.26893939 0 67.26893939 0 77.25 8.234375 C83.61032998 14.65149364 86.96021132 21.76572676 87.3125 30.8125 C87.07475266 39.51669438 84.80244005 45.86902104 78.9140625 52.30859375 C76.76040172 54.21172664 74.50122898 55.59467031 72 57 C72.72445312 57.47308594 73.44890625 57.94617188 74.1953125 58.43359375 C83.71838343 64.94737427 89.53777881 72.27030669 92.6875 83.4375 C93.74788986 92.13269684 92.48667746 99.47069463 88.25 107.1875 C79.6248927 117.96888412 71.67203294 121.26559341 58 124 C38.86 124 19.72 124 0 124 C0 83.08 0 42.16 0 0 Z " fill="#11798E" transform="translate(891,417)"/>
<path d="M0 0 C7.92 0 15.84 0 24 0 C24 41.91 24 83.82 24 127 C16.41 127 8.82 127 1 127 C0.505 123.04 0.505 123.04 0 119 C-1.4540625 120.36125 -1.4540625 120.36125 -2.9375 121.75 C-12.28579609 129.77095181 -23.06665372 130.72656716 -34.98144531 130.17480469 C-45.86640601 129.23217868 -54.12857583 123.40928001 -61.3125 115.5625 C-68.98908653 106.01978193 -71.56399173 94.65777724 -71.4375 82.625 C-71.42992676 81.61421387 -71.42235352 80.60342773 -71.41455078 79.56201172 C-71.15740128 67.91145004 -68.09461644 59.24073791 -61 50 C-60.38382813 49.16597656 -59.76765625 48.33195312 -59.1328125 47.47265625 C-52.4660019 39.74355165 -42.63436102 35.61858844 -32.6484375 34.6875 C-20.86754507 34.27683708 -11.86631244 37.22253295 -3 45 C-2.34 45.66 -1.68 46.32 -1 47 C-0.67 31.49 -0.34 15.98 0 0 Z " fill="#11798E" transform="translate(847,413)"/>
<path d="M0 0 C10.64168101 7.72720261 18.0902356 18.27966345 21.1875 31.1875 C21.62859264 34.76130628 21.71273523 38.27645669 21.6875 41.875 C21.68105469 42.84179688 21.67460937 43.80859375 21.66796875 44.8046875 C21.45639281 53.1452339 19.92702483 59.65345733 16.1875 67.1875 C15.6409375 68.30898438 15.094375 69.43046875 14.53125 70.5859375 C9.70291199 79.69021893 3.42818453 87.36671304 -3.18408203 95.22802734 C-5.70980314 98.26722339 -8.13671245 101.38088391 -10.5625 104.5 C-15.22386521 110.47041357 -19.98662719 116.34878969 -24.8125 122.1875 C-27.85346167 121.88749481 -28.75678557 121.25036842 -30.8203125 118.921875 C-31.51898438 117.93703125 -32.21765625 116.9521875 -32.9375 115.9375 C-33.73209785 114.83653519 -34.52770628 113.73629918 -35.32421875 112.63671875 C-35.73333496 112.06614746 -36.14245117 111.49557617 -36.56396484 110.90771484 C-38.56937602 108.14468646 -40.65963641 105.44897641 -42.75 102.75 C-43.16515869 102.21012451 -43.58031738 101.67024902 -44.00805664 101.11401367 C-46.10633018 98.38581275 -48.21776186 95.66926444 -50.3515625 92.96875 C-64.70705362 74.72381281 -76.08868157 56.2410487 -73.8125 32.1875 C-71.31225755 19.75731737 -64.25638546 7.65339762 -53.6875 0.5625 C-36.94514184 -9.43856428 -16.94192601 -10.56745552 0 0 Z " fill="#FD8953" transform="translate(409.8125,427.8125)"/>
<path d="M0 0 C7.611144 6.52383772 12.94199433 13.46669682 13.9758606 23.73458862 C14.08601616 27.79022164 14.07605871 31.82700818 14.015625 35.8828125 C14.00814855 37.37066888 14.00246227 38.85853521 13.99847412 40.34640503 C13.98332785 44.22965515 13.94414424 48.11229027 13.8996582 51.99530029 C13.8584651 55.97074061 13.84041223 59.94628199 13.8203125 63.921875 C13.77763639 71.6982272 13.70738014 79.47394847 13.625 87.25 C6.365 87.25 -0.895 87.25 -8.375 87.25 C-8.705 83.95 -9.035 80.65 -9.375 77.25 C-10.035 77.971875 -10.695 78.69375 -11.375 79.4375 C-19.27204787 87.28993178 -28.1506128 89.68439012 -39.16137695 89.68823242 C-47.25509235 89.47663811 -54.13251095 86.95207421 -60.375 81.75 C-61.365 80.5125 -61.365 80.5125 -62.375 79.25 C-63.096875 78.445625 -63.81875 77.64125 -64.5625 76.8125 C-68.98832416 70.55530033 -69.26553081 63.69296274 -68.375 56.25 C-66.13472264 48.81019517 -62.12092012 43.99903923 -55.375 40.25 C-47.5459167 36.43362867 -40.2893966 35.11214564 -31.56640625 35.15234375 C-30.32568359 35.15556641 -29.08496094 35.15878906 -27.80664062 35.16210938 C-26.52982422 35.17048828 -25.25300781 35.17886719 -23.9375 35.1875 C-21.98166992 35.19426758 -21.98166992 35.19426758 -19.98632812 35.20117188 C-16.78250448 35.21290749 -13.57877637 35.22932637 -10.375 35.25 C-10.44690552 33.71122192 -10.44690552 33.71122192 -10.52026367 32.14135742 C-10.63460286 29.6944987 -10.74894206 27.24763997 -10.86328125 24.80078125 C-11.48574094 20.48157621 -12.52994505 17.66727874 -16.04296875 14.96875 C-22.42599805 13.00145119 -31.78827659 12.6397443 -37.9765625 15.41796875 C-41.62791039 18.44004179 -42.54344025 20.67110063 -44.375 25.25 C-51.305 24.26 -58.235 23.27 -65.375 22.25 C-61.90296392 10.67654639 -58.31907542 3.91586297 -47.625 -1.875 C-32.79997041 -8.82252309 -14.31646695 -7.42335324 0 0 Z " fill="#11798E" transform="translate(1062.375,453.75)"/>
<path d="M0 0 C7.92 0 15.84 0 24 0 C24.33 23.76 24.66 47.52 25 72 C32.91553821 63.39339332 32.91553821 63.39339332 40.5 54.5 C41.24636719 53.61699219 41.99273438 52.73398437 42.76171875 51.82421875 C45.09570573 49.00304148 45.09570573 49.00304148 47.01953125 45.64453125 C49.4978271 41.85941789 51.77747822 38.86867109 56 37 C65.23028708 35.51372003 74.72195392 36.26252156 84 37 C82.0114295 40.40722873 80.11368357 43.09200061 77.25 45.8125 C74.59198436 48.34625881 72.13193393 50.97246472 69.734375 53.75 C67.24067264 56.62912311 64.67622709 59.39522183 62 62.10546875 C61.34128906 62.77900391 60.68257812 63.45253906 60.00390625 64.14648438 C58.64673614 65.52878726 57.27917053 66.90094667 55.90234375 68.26367188 C55.25394531 68.93333984 54.60554688 69.60300781 53.9375 70.29296875 C53.34839844 70.8861792 52.75929688 71.47938965 52.15234375 72.09057617 C50.76239517 73.98465009 50.76239517 73.98465009 51.15405273 76.48754883 C52.01751041 79.05200567 52.97476334 80.75293754 54.59765625 82.90625 C55.14429932 83.64004883 55.69094238 84.37384766 56.25415039 85.12988281 C57.14928345 86.30309082 57.14928345 86.30309082 58.0625 87.5 C58.67794678 88.32081055 59.29339355 89.14162109 59.92749023 89.98730469 C61.94124686 92.66625483 63.96889903 95.33417998 66 98 C66.70898438 98.93263672 67.41796875 99.86527344 68.1484375 100.82617188 C70.95377655 104.51514209 73.75982332 108.20346111 76.58032227 111.88085938 C87 125.47576826 87 125.47576826 87 128 C83.01763976 128.27420913 79.03899406 128.47247272 75.04931641 128.60424805 C73.03482031 128.68608545 71.02295083 128.82595153 69.01171875 128.96679688 C59.45133037 129.23102871 59.45133037 129.23102871 55.57617188 125.9440918 C53.4642333 123.06566517 51.73570674 120.11872963 50 117 C48.58951458 114.90409863 47.16212127 112.81948494 45.71875 110.74609375 C44.3100901 108.64484274 42.9038465 106.54196989 41.5 104.4375 C40.77296875 103.35919922 40.0459375 102.28089844 39.296875 101.16992188 C38.61109375 100.14318359 37.9253125 99.11644531 37.21875 98.05859375 C36.59935547 97.13361084 35.97996094 96.20862793 35.34179688 95.25561523 C34 93 34 93 34 91 C33.34 91 32.68 91 32 91 C31.773125 91.53625 31.54625 92.0725 31.3125 92.625 C30 95 30 95 27.46875 97.28125 C23.32771369 102.18331327 24.2160018 108.79461655 24.1875 114.875 C24.16236328 116.13570312 24.13722656 117.39640625 24.11132812 118.6953125 C24.05259274 121.79654084 24.023401 124.89830378 24 128 C16.08 128 8.16 128 0 128 C0 85.76 0 43.52 0 0 Z " fill="#107A8E" transform="translate(1190,413)"/>
<path d="M0 0 C25.74 0 51.48 0 78 0 C78 7.26 78 14.52 78 22 C60.51 22 43.02 22 25 22 C25 32.23 25 42.46 25 53 C41.17 53 57.34 53 74 53 C74 59.93 74 66.86 74 74 C57.83 74 41.66 74 25 74 C25 90.5 25 107 25 124 C16.75 124 8.5 124 0 124 C0 83.08 0 42.16 0 0 Z " fill="#107A8E" transform="translate(541,417)"/>
<path d="M0 0 C8.22498838 4.92678173 12.30254338 11.68860015 14.95513916 20.72521973 C16.20654775 26.67734552 15.96157784 32.70367342 15.890625 38.7578125 C15.88501688 40.17841134 15.88075254 41.59901605 15.87776184 43.0196228 C15.86640856 46.72520491 15.83702593 50.43042383 15.8036499 54.13586426 C15.77274138 57.93036997 15.7592125 61.72493543 15.74414062 65.51953125 C15.71214486 72.94028746 15.65945743 80.36067119 15.59765625 87.78125 C7.67765625 87.78125 -0.24234375 87.78125 -8.40234375 87.78125 C-8.43972656 83.84316406 -8.47710938 79.90507813 -8.515625 75.84765625 C-8.56189425 72.01500026 -8.61310846 68.18243983 -8.66479492 64.34985352 C-8.69957038 61.69519197 -8.72601562 59.04082104 -8.7487793 56.38598633 C-8.78248164 52.56041148 -8.83480771 48.7354647 -8.890625 44.91015625 C-8.89701492 43.73167618 -8.90340485 42.55319611 -8.9099884 41.33900452 C-9.04588916 33.64610891 -9.19287405 25.91243995 -14.96484375 20.28125 C-20.76306296 16.7131151 -26.72099035 17.24095832 -33.40234375 17.78125 C-38.38200552 20.01351217 -40.83171186 23.00721935 -43.40234375 27.78125 C-45.52467655 34.52604084 -45.74222792 40.89838356 -45.81640625 47.9375 C-45.8357724 49.08037476 -45.85513855 50.22324951 -45.87509155 51.40075684 C-45.93455726 55.02751353 -45.9811406 58.65430253 -46.02734375 62.28125 C-46.06555389 64.75001334 -46.10460736 67.21876378 -46.14453125 69.6875 C-46.24180835 75.71868039 -46.32164037 81.74973427 -46.40234375 87.78125 C-53.99234375 87.78125 -61.58234375 87.78125 -69.40234375 87.78125 C-69.40234375 58.08125 -69.40234375 28.38125 -69.40234375 -2.21875 C-62.80234375 -2.21875 -56.20234375 -2.21875 -49.40234375 -2.21875 C-48.90734375 4.71125 -48.90734375 4.71125 -48.40234375 11.78125 C-47.35046875 10.54375 -46.29859375 9.30625 -45.21484375 8.03125 C-33.23238462 -5.5265922 -16.24980939 -8.24380574 0 0 Z " fill="#11798E" transform="translate(746.40234375,452.21875)"/>
<path d="M0 0 C8.70275446 6.38461004 12.76608291 13.9289399 15.125 24.23828125 C11.66723673 24.90792791 8.20870019 25.57349212 4.75 26.23828125 C3.76515625 26.4290625 2.7803125 26.61984375 1.765625 26.81640625 C0.82460937 26.996875 -0.11640625 27.17734375 -1.0859375 27.36328125 C-2.38990479 27.61464844 -2.38990479 27.61464844 -3.72021484 27.87109375 C-5.875 28.23828125 -5.875 28.23828125 -7.875 28.23828125 C-8.266875 27.18640625 -8.65875 26.13453125 -9.0625 25.05078125 C-10.92773849 20.70442363 -13.60657721 17.66042711 -17.64453125 15.12890625 C-23.03020078 12.97841124 -29.8500497 13.28937168 -35.328125 15.0078125 C-41.15772275 18.15624029 -43.61968661 23.19796365 -45.875 29.23828125 C-46.79278291 32.16163098 -46.79278291 32.16163098 -46.875 35.23828125 C-46.9678125 36.40230469 -46.9678125 36.40230469 -47.0625 37.58984375 C-47.46644187 46.35033315 -45.88783325 55.27402697 -40.5 62.36328125 C-33.90495817 67.07402542 -28.89344719 68.06856018 -20.875 67.23828125 C-16.65812091 66.33316078 -13.60170302 64.96498427 -10.5 61.86328125 C-8.59367963 58.95288831 -8.59367963 58.95288831 -6.875 54.23828125 C0.385 55.22828125 7.645 56.21828125 15.125 57.23828125 C13.93853204 65.54355696 11.51497122 72.44638615 5.125 78.23828125 C-7.48494058 87.68392962 -21.9181293 89.93439069 -37.20703125 87.765625 C-47.19584073 85.62424993 -56.70360973 80.55372259 -62.875 72.23828125 C-71.24065695 58.06788274 -74.19219129 43.83800889 -71.1875 27.5 C-67.96252446 16.06477423 -61.27654909 5.68315294 -50.94140625 -0.5234375 C-34.34034521 -9.08303577 -16.26715486 -9.96805277 0 0 Z " fill="#117A8E" transform="translate(1161.875,454.76171875)"/>
<path d="M0 0 C5.16777792 3.31139168 8.35231661 6.9777654 10 13 C10.41444995 16.69723593 10.41975262 20.34554605 10.375 24.0625 C10.38660156 25.02994141 10.39820313 25.99738281 10.41015625 26.99414062 C10.38335709 33.5197356 9.66429773 38.02325797 5.16796875 43.046875 C4.18763672 43.88992188 4.18763672 43.88992188 3.1875 44.75 C2.54167969 45.32234375 1.89585937 45.8946875 1.23046875 46.484375 C-5.18510128 50.84381663 -12.53170726 50.8249348 -20 50 C-27.06935562 48.00781497 -31.10766606 44.44998775 -34.94140625 38.28125 C-38.39344705 30.84216576 -38.47185891 19.2753011 -35.875 11.5 C-32.30895787 4.84338802 -28.58507845 0.44461108 -21.421875 -2.34375 C-14.10403805 -4.32664776 -6.76331471 -3.33773973 0 0 Z " fill="#FCF5E6" transform="translate(837,472)"/>
<path d="M0 0 C7.59 0 15.18 0 23 0 C23 29.7 23 59.4 23 90 C15.41 90 7.82 90 0 90 C0 60.3 0 30.6 0 0 Z " fill="#0F788D" transform="translate(633,450)"/>
<path d="M0 0 C4.51894612 3.57749901 8.16307088 7.86421265 10 13.375 C10.5904202 20.75525248 8.91067047 27.30372747 4.375 33.1875 C-0.01433911 37.85932133 -5.6420377 40.509767 -12.0625 40.8125 C-18.74694738 40.06978362 -24.10530385 38.13373236 -29 33.375 C-34.30011151 26.16095934 -34.74375944 20.16198655 -34 11.375 C-32.33169091 5.71681919 -27.81693663 1.54910771 -23 -1.625 C-14.72056921 -4.87763353 -7.72544541 -4.18461627 0 0 Z " fill="#FEF4E6" transform="translate(396,450.625)"/>
<path d="M0 0 C7.239375 -0.0928125 7.239375 -0.0928125 14.625 -0.1875 C16.89238037 -0.22846802 16.89238037 -0.22846802 19.20556641 -0.27026367 C21.01033447 -0.28150269 21.01033447 -0.28150269 22.8515625 -0.29296875 C24.07697754 -0.3086792 25.30239258 -0.32438965 26.56494141 -0.34057617 C31.14725257 0.11374679 34.47771237 1.59579338 37.86328125 4.71875 C38.34152344 5.3065625 38.81976562 5.894375 39.3125 6.5 C40.04919922 7.38171875 40.04919922 7.38171875 40.80078125 8.28125 C43.41431381 12.02702957 43.294684 15.57974006 43 20 C41.33236419 25.17844803 39.59004726 28.04925533 35 31 C30.8774603 33.02709265 27.51947094 33.23420826 22.94921875 33.1953125 C21.14070435 33.18781982 21.14070435 33.18781982 19.2956543 33.18017578 C17.77496338 33.16196777 16.25427246 33.14375977 14.6875 33.125 C9.840625 33.08375 4.99375 33.0425 0 33 C0 22.11 0 11.22 0 0 Z " fill="#FDF5E6" transform="translate(915,487)"/>
<path d="M0 0 C4.33125 -0.061875 8.6625 -0.12375 13.125 -0.1875 C14.47996582 -0.21481201 15.83493164 -0.24212402 17.23095703 -0.27026367 C18.85300049 -0.28150269 18.85300049 -0.28150269 20.5078125 -0.29296875 C21.60754395 -0.3086792 22.70727539 -0.32438965 23.84033203 -0.34057617 C28.63319637 0.17603994 31.89368334 1.93609214 35.34375 5.25390625 C38.46107855 10.42249581 37.636697 16.17388012 37 22 C35.31392527 26.65677782 32.97082986 28.33811024 28.625 30.375 C19.55507595 33.37762875 9.37190655 32.22719773 0 32 C0 21.44 0 10.88 0 0 Z " fill="#FCF5E7" transform="translate(915,437)"/>
<path d="M0 0 C2.31 0 4.62 0 7 0 C7 13.86 7 27.72 7 42 C5.02 42 3.04 42 1 42 C0.67 40.68 0.34 39.36 0 38 C-0.639375 38.66 -1.27875 39.32 -1.9375 40 C-5.50180116 42.32770688 -7.59713349 42.70180995 -11.77734375 42.52734375 C-15.59558024 41.62143527 -17.83688574 39.17514272 -20 36 C-21.79234269 30.62297194 -22.02611345 24.19545113 -20.28125 18.76171875 C-18.25959915 14.95481978 -16.05418594 12.44148834 -12 11 C-8.91919678 10.97325692 -5.98440229 11.22018565 -3 12 C-2.34 12.66 -1.68 13.32 -1 14 C-0.67 9.38 -0.34 4.76 0 0 Z " fill="#FD8245" transform="translate(737,573)"/>
<path d="M0 0 C1.98 0 3.96 0 6 0 C6.33 4.95 6.66 9.9 7 15 C8.65 13.68 10.3 12.36 12 11 C15.17192665 10.51660707 17.95068758 11.03705924 21 12 C24.92338141 15.08861941 27.65170538 18.29958587 28.30078125 23.33203125 C28.33373036 30.30625979 27.60101682 35.01648071 22.875 40.4375 C18.88865615 42.60399122 15.44809662 42.72198583 11 42 C8.4375 40.5 8.4375 40.5 7 39 C6.67 39.99 6.34 40.98 6 42 C4.02 42 2.04 42 0 42 C0 28.14 0 14.28 0 0 Z " fill="#FD8246" transform="translate(1012,573)"/>
<path d="M0 0 C1.98 0 3.96 0 6 0 C6 13.86 6 27.72 6 42 C4.02 42 2.04 42 0 42 C-0.33 40.68 -0.66 39.36 -1 38 C-1.474375 38.66 -1.94875 39.32 -2.4375 40 C-5.68668223 42.53594711 -7.7096423 42.63932045 -11.74609375 42.453125 C-15.66699269 41.66486802 -17.3127009 39.94947463 -20 37 C-22.81949277 32.51444333 -22.51948911 27.12892418 -22 22 C-20.25745027 16.86915914 -17.62867099 13.82863227 -13 11 C-9.12050637 10.79753484 -5.48843842 11.25578079 -2 13 C-2 13.66 -2 14.32 -2 15 C-1.34 15 -0.68 15 0 15 C0 10.05 0 5.1 0 0 Z " fill="#FD8244" transform="translate(906,573)"/>
<path d="M0 0 C4.23329605 0.77754417 5.96871202 2.61603526 9.0625 5.5625 C10.361875 4.325 10.361875 4.325 11.6875 3.0625 C14.06493173 1.09342713 14.96690546 0.57810727 18.125 0.0625 C21.54037726 0.64384081 23.36700398 1.37696268 26.0625 3.5625 C29.83675602 9.1245615 29.41241795 14.48242782 29.25 20.9375 C29.22969727 22.47083984 29.22969727 22.47083984 29.20898438 24.03515625 C29.17380217 26.54482049 29.12457539 29.0533809 29.0625 31.5625 C26.7525 31.5625 24.4425 31.5625 22.0625 31.5625 C22.032771 30.62398193 22.032771 30.62398193 22.00244141 29.66650391 C21.90735774 26.83973481 21.79761254 24.01372185 21.6875 21.1875 C21.6565625 20.20265625 21.625625 19.2178125 21.59375 18.203125 C21.53574219 16.79160156 21.53574219 16.79160156 21.4765625 15.3515625 C21.4451416 14.48225098 21.4137207 13.61293945 21.38134766 12.71728516 C21.25020567 10.35288206 21.25020567 10.35288206 19.0625 8.5625 C16.0625 8.14583333 16.0625 8.14583333 13.0625 8.5625 C10.97504955 11.69367567 10.78596004 12.63196224 10.6484375 16.23046875 C10.60976562 17.12314453 10.57109375 18.01582031 10.53125 18.93554688 C10.48484375 20.32870117 10.48484375 20.32870117 10.4375 21.75 C10.39882812 22.69037109 10.36015625 23.63074219 10.3203125 24.59960938 C10.22606813 26.9203771 10.14045975 29.24113748 10.0625 31.5625 C7.7525 31.5625 5.4425 31.5625 3.0625 31.5625 C3.03744385 30.9012915 3.0123877 30.24008301 2.98657227 29.55883789 C2.87096898 26.58067695 2.74808246 23.6028608 2.625 20.625 C2.58568359 19.58408203 2.54636719 18.54316406 2.50585938 17.47070312 C2.46396484 16.48134766 2.42207031 15.49199219 2.37890625 14.47265625 C2.34224854 13.55621338 2.30559082 12.63977051 2.26782227 11.69555664 C2.29246136 9.5804272 2.29246136 9.5804272 1.0625 8.5625 C-1.89567107 8.31244614 -1.89567107 8.31244614 -4.9375 8.5625 C-7.41807628 11.04307628 -7.22769005 11.92442464 -7.3515625 15.3515625 C-7.39023438 16.29257812 -7.42890625 17.23359375 -7.46875 18.203125 C-7.4996875 19.18796875 -7.530625 20.1728125 -7.5625 21.1875 C-7.62050781 22.67636719 -7.62050781 22.67636719 -7.6796875 24.1953125 C-7.7741314 26.65085385 -7.85969875 29.1063841 -7.9375 31.5625 C-10.2475 31.5625 -12.5575 31.5625 -14.9375 31.5625 C-14.9375 21.6625 -14.9375 11.7625 -14.9375 1.5625 C-12.9575 1.5625 -10.9775 1.5625 -8.9375 1.5625 C-8.6075 2.5525 -8.2775 3.5425 -7.9375 4.5625 C-7.23625 3.9025 -6.535 3.2425 -5.8125 2.5625 C-2.9375 0.5625 -2.9375 0.5625 0 0 Z " fill="#FD864C" transform="translate(1213.9375,583.4375)"/>
<path d="M0 0 C3.50954988 3.9224381 4.94167733 7.66398843 5.5 12.875 C4.92260523 18.26401784 3.57568819 22.03045973 -0.4375 25.75 C-5.19616721 28.92244481 -9.23824939 28.98976082 -14.875 28.375 C-18.57027184 26.62814422 -20.35217274 25.08953059 -22.75 21.8125 C-24.77602464 15.62186915 -25.06778819 9.76057638 -22.125 3.875 C-15.95880298 -2.97633002 -8.28736988 -4.68416558 0 0 Z " fill="#FD8449" transform="translate(807.875,586.625)"/>
<path d="M0 0 C4.80232849 2.40116424 7.70264475 5.14021004 10 10 C10.77674653 15.24700208 10.79996611 20.21797332 8.3125 25 C5.3748929 28.81094975 3.52669616 30.66141425 -1.33203125 31.3125 C-7.04907765 31.58678109 -10.60372097 30.96737376 -15 27 C-18.90197176 21.56711109 -18.78212141 16.47666831 -18 10 C-14.49938257 2.4602086 -8.25593336 -1.61816294 0 0 Z " fill="#FD8346" transform="translate(573,584)"/>
<path d="M0 0 C1.06992188 0.00902344 2.13984375 0.01804687 3.2421875 0.02734375 C5.87002439 0.05080658 8.49739406 0.08363541 11.125 0.125 C11.15712286 1.89701696 11.18012264 3.66920104 11.19921875 5.44140625 C11.21988403 6.92169312 11.21988403 6.92169312 11.2409668 8.43188477 C11.04196186 13.05340794 9.1532796 15.0967204 6 18.25 C-1.1821119 22.93398602 -8.14967319 23.92590285 -16.5625 22.5 C-20.79394642 20.74355054 -22.0198807 19.29901843 -23.875 15.125 C-24.30819561 10.60738861 -23.43310866 7.85851424 -20.6875 4.25 C-14.26886388 -0.59963618 -7.70853731 -0.12341254 0 0 Z " fill="#FAF5E8" transform="translate(1040.875,502.875)"/>
<path d="M0 0 C2.31 0 4.62 0 7 0 C7.67668949 2.20528272 8.34093498 4.41438609 9 6.625 C9.37125 7.85476563 9.7425 9.08453125 10.125 10.3515625 C10.93727719 13.73846826 11.17041013 16.53854429 11 20 C11.66 20 12.32 20 13 20 C13.16435547 19.09121094 13.16435547 19.09121094 13.33203125 18.1640625 C14.50441057 11.96856205 16.08338447 6.00539533 18 0 C20.31 0 22.62 0 25 0 C26.98 6.27 28.96 12.54 31 19 C31.639375 16.793125 32.27875 14.58625 32.9375 12.3125 C33.29714844 11.07113281 33.65679688 9.82976563 34.02734375 8.55078125 C34.80726431 5.70360138 35.47287216 2.90197746 36 0 C38.31 0 40.62 0 43 0 C41.87960461 4.06378424 40.75288051 8.12578743 39.625 12.1875 C39.14933594 13.91323242 39.14933594 13.91323242 38.6640625 15.67382812 C38.3546875 16.78564453 38.0453125 17.89746094 37.7265625 19.04296875 C37.44377441 20.06414795 37.16098633 21.08532715 36.86962891 22.13745117 C36.05068437 24.83316276 35.08881153 27.40312193 34 30 C32.35 30 30.7 30 29 30 C25.535 20.595 25.535 20.595 22 11 C18.76734918 18.24561101 18.76734918 18.24561101 15.75 25.5625 C15.41484375 26.40941406 15.0796875 27.25632812 14.734375 28.12890625 C14.49203125 28.74636719 14.2496875 29.36382813 14 30 C12.35 30 10.7 30 9 30 C5.57048912 20.09096241 2.58097945 10.16531011 0 0 Z " fill="#FC8042" transform="translate(932,585)"/>
<path d="M0 0 C3.44225864 2.37133373 5.61296491 4.95080986 6.8125 8.9375 C6.8125 11.5775 6.8125 14.2175 6.8125 16.9375 C-0.1175 16.9375 -7.0475 16.9375 -14.1875 16.9375 C-13.5275 18.9175 -12.8675 20.8975 -12.1875 22.9375 C-10.929375 23.123125 -9.67125 23.30875 -8.375 23.5 C-7.66730469 23.60441406 -6.95960937 23.70882812 -6.23046875 23.81640625 C-3.9849658 24.07654799 -3.9849658 24.07654799 -1.1875 22.9375 C-0.8575 22.2775 -0.5275 21.6175 -0.1875 20.9375 C1.7925 21.2675 3.7725 21.5975 5.8125 21.9375 C5.51577903 24.70689575 4.7625454 25.9995126 3 28.1875 C-1.9329552 30.89578913 -6.6885501 30.80810506 -12.1875 29.9375 C-16.15360944 28.01890404 -18.58816063 25.00724751 -20.1875 20.9375 C-20.83726949 15.0895746 -20.9884249 9.72417862 -18.5625 4.3125 C-13.03195812 -1.21804188 -7.43352959 -2.4778432 0 0 Z " fill="#FC864A" transform="translate(1186.1875,585.0625)"/>
<path d="M0 0 C4.0226217 1.56435288 5.59149109 2.38723663 8 6 C8.22705078 8.63549805 8.22705078 8.63549805 8.1953125 11.76171875 C8.18886719 12.87998047 8.18242188 13.99824219 8.17578125 15.15039062 C8.15902344 16.31763672 8.14226563 17.48488281 8.125 18.6875 C8.11597656 19.86634766 8.10695313 21.04519531 8.09765625 22.25976562 C8.07406423 25.17338026 8.0411454 28.08658892 8 31 C6.02 31 4.04 31 2 31 C1.67 30.34 1.34 29.68 1 29 C0.43152344 29.32097656 -0.13695312 29.64195312 -0.72265625 29.97265625 C-4.45166824 31.65486921 -7.99524022 31.68408708 -12 31 C-15.0625 28.9375 -15.0625 28.9375 -17 26 C-17.625 22.5 -17.625 22.5 -17 19 C-14.45862841 15.84045695 -12.85377341 14.28459114 -9 13 C-7.10529184 12.9314505 -5.2083166 12.91519628 -3.3125 12.9375 C-2.31863281 12.94652344 -1.32476563 12.95554687 -0.30078125 12.96484375 C0.83810547 12.98224609 0.83810547 12.98224609 2 13 C0.91215032 9.75016865 0.91215032 9.75016865 -1 7 C-4.45821402 6.74996036 -4.45821402 6.74996036 -8 7 C-8.66 7.66 -9.32 8.32 -10 9 C-13.125 9.125 -13.125 9.125 -16 9 C-15.04872818 5.57542144 -14.07456145 4.06568509 -11.375 1.6875 C-7.30762747 -0.34618626 -4.45420791 -0.74532563 0 0 Z " fill="#FD864C" transform="translate(668,584)"/>
<path d="M0 0 C3.23729119 2.49541196 5.76300366 5.06410254 7 9 C7 11.64 7 14.28 7 17 C0.07 17 -6.86 17 -14 17 C-13.34 18.98 -12.68 20.96 -12 23 C-5.93949386 24.0812391 -5.93949386 24.0812391 0 23 C0 22.34 0 21.68 0 21 C1.98 21.33 3.96 21.66 6 22 C5.11593727 24.97366555 4.31696033 26.7127547 2 28.8125 C-2.37967299 30.54612056 -6.35261692 30.67029564 -11 30 C-15.54584968 27.76840107 -17.77245902 25.49326838 -20 21 C-20.80983332 15.17065929 -20.7949869 9.77343231 -18.375 4.375 C-12.81099059 -1.18900941 -7.4646165 -2.05619653 0 0 Z " fill="#FD874D" transform="translate(998,585)"/>
<path d="M0 0 C3.98903113 2.06838651 6.61014099 4.21719459 9 8 C9.80503292 12.06541625 9.95254041 16.23956421 7.9453125 19.94921875 C6.18765675 22.09688687 4.49320013 23.75339994 2 25 C-9.24705946 26.02705184 -9.24705946 26.02705184 -13.625 23.25 C-17.02361286 20.0302615 -18.29803272 17.30125572 -18.4375 12.625 C-18.36439357 9.21149208 -17.88885072 7.24099921 -15.75 4.5625 C-10.83034174 -0.02172702 -6.60101577 -0.93972794 0 0 Z " fill="#10798D" transform="translate(649,413)"/>
<path d="M0 0 C3.38742074 1.57949098 5.4329698 3.63004559 7.02734375 6.9453125 C7.62809613 11.09039317 7.49974248 15.14326575 7.33984375 19.3203125 C7.31728516 20.43792969 7.29472656 21.55554688 7.27148438 22.70703125 C7.21277753 25.4545114 7.13071221 28.19921011 7.02734375 30.9453125 C4.71734375 30.9453125 2.40734375 30.9453125 0.02734375 30.9453125 C0.0022876 30.284104 -0.02276855 29.62289551 -0.04858398 28.94165039 C-0.16418727 25.96348945 -0.28707379 22.9856733 -0.41015625 20.0078125 C-0.44947266 18.96689453 -0.48878906 17.92597656 -0.52929688 16.85351562 C-0.57119141 15.86416016 -0.61308594 14.87480469 -0.65625 13.85546875 C-0.69290771 12.93902588 -0.72956543 12.02258301 -0.76733398 11.07836914 C-0.74269489 8.9632397 -0.74269489 8.9632397 -1.97265625 7.9453125 C-5.43087027 7.69527286 -5.43087027 7.69527286 -8.97265625 7.9453125 C-11.45323253 10.42588878 -11.2628463 11.30723714 -11.38671875 14.734375 C-11.42539062 15.67539062 -11.4640625 16.61640625 -11.50390625 17.5859375 C-11.53484375 18.57078125 -11.56578125 19.555625 -11.59765625 20.5703125 C-11.65566406 22.05917969 -11.65566406 22.05917969 -11.71484375 23.578125 C-11.80928765 26.03366635 -11.894855 28.4891966 -11.97265625 30.9453125 C-14.28265625 30.9453125 -16.59265625 30.9453125 -18.97265625 30.9453125 C-18.97265625 21.0453125 -18.97265625 11.1453125 -18.97265625 0.9453125 C-16.99265625 0.9453125 -15.01265625 0.9453125 -12.97265625 0.9453125 C-12.64265625 1.9353125 -12.31265625 2.9253125 -11.97265625 3.9453125 C-11.14765625 3.2646875 -10.32265625 2.5840625 -9.47265625 1.8828125 C-6.19472355 -0.27922822 -3.83115617 -0.36039506 0 0 Z " fill="#FD8448" transform="translate(870.97265625,584.0546875)"/>
<path d="M0 0 C2.31 0 4.62 0 7 0 C7.02505615 0.6612085 7.0501123 1.32241699 7.07592773 2.00366211 C7.19153102 4.98182305 7.31441754 7.9596392 7.4375 10.9375 C7.47681641 11.97841797 7.51613281 13.01933594 7.55664062 14.09179688 C7.59853516 15.08115234 7.64042969 16.07050781 7.68359375 17.08984375 C7.72025146 18.00628662 7.75690918 18.92272949 7.79467773 19.86694336 C7.77003864 21.9820728 7.77003864 21.9820728 9 23 C13.08623557 23.44400003 13.08623557 23.44400003 16.66333008 21.77612305 C18.3629984 19.51765967 18.42226993 18.14072415 18.51171875 15.33203125 C18.54716797 14.43935547 18.58261719 13.54667969 18.61914062 12.62695312 C18.64169922 11.69818359 18.66425781 10.76941406 18.6875 9.8125 C18.72166016 8.87212891 18.75582031 7.93175781 18.79101562 6.96289062 C18.87348218 4.64204607 18.94263403 2.32157852 19 0 C21.31 0 23.62 0 26 0 C26 9.9 26 19.8 26 30 C24.02 30 22.04 30 20 30 C19.67 28.68 19.34 27.36 19 26 C18.525625 26.66 18.05125 27.32 17.5625 28 C14.29447184 30.55065612 12.24296731 30.57474896 8.19140625 30.39453125 C4.93288826 29.80788184 3.20399646 28.41062113 1 26 C-0.01973129 22.94080612 -0.11533602 20.87581975 -0.09765625 17.67578125 C-0.09443359 16.64775391 -0.09121094 15.61972656 -0.08789062 14.56054688 C-0.07951172 13.48869141 -0.07113281 12.41683594 -0.0625 11.3125 C-0.05798828 10.22904297 -0.05347656 9.14558594 -0.04882812 8.02929688 C-0.03703743 5.35280915 -0.02058063 2.67643223 0 0 Z " fill="#FD8B53" transform="translate(819,585)"/>
<path d="M0 0 C5.57894737 3.15789474 5.57894737 3.15789474 7 6 C7.084915 7.8863912 7.107193 9.77578515 7.09765625 11.6640625 C7.09443359 12.78554688 7.09121094 13.90703125 7.08789062 15.0625 C7.07951172 16.238125 7.07113281 17.41375 7.0625 18.625 C7.05798828 19.80835938 7.05347656 20.99171875 7.04882812 22.2109375 C7.03701467 25.14067507 7.02054258 28.07031272 7 31 C5.02 31 3.04 31 1 31 C0.98018066 30.37432129 0.96036133 29.74864258 0.93994141 29.10400391 C0.84485774 26.27723481 0.73511254 23.45122185 0.625 20.625 C0.5940625 19.64015625 0.563125 18.6553125 0.53125 17.640625 C0.49257813 16.69960938 0.45390625 15.75859375 0.4140625 14.7890625 C0.36693115 13.48509521 0.36693115 13.48509521 0.31884766 12.15478516 C0.18770567 9.79038206 0.18770567 9.79038206 -2 8 C-5.5 7.58333333 -5.5 7.58333333 -9 8 C-11.08745045 11.13117567 -11.27653996 12.06946224 -11.4140625 15.66796875 C-11.45273437 16.56064453 -11.49140625 17.45332031 -11.53125 18.37304688 C-11.5621875 19.30181641 -11.593125 20.23058594 -11.625 21.1875 C-11.66367187 22.12787109 -11.70234375 23.06824219 -11.7421875 24.03710938 C-11.83643187 26.3578771 -11.92204025 28.67863748 -12 31 C-14.31 31 -16.62 31 -19 31 C-19 21.1 -19 11.2 -19 1 C-17.02 1 -15.04 1 -13 1 C-12.67 1.99 -12.34 2.98 -12 4 C-11.13375 3.34 -10.2675 2.68 -9.375 2 C-5.67661178 -0.19163746 -4.19497546 -0.69916258 0 0 Z " fill="#FD8448" transform="translate(702,584)"/>
<path d="M0 0 C2.31 0 4.62 0 7 0 C9.84555192 6.2662686 12.48568591 12.59384869 15 19 C15.32613281 18.21496094 15.65226562 17.42992187 15.98828125 16.62109375 C18.29789053 11.06849327 20.61590894 5.52105299 23 0 C25.31 0 27.62 0 30 0 C28.51009433 3.9665471 27.01661706 7.93172639 25.52001953 11.89575195 C25.01288502 13.24044628 24.50667631 14.58549019 24.00146484 15.9309082 C15.72439379 37.96758549 15.72439379 37.96758549 12 41 C8.375 41.75 8.375 41.75 5 42 C4 41 4 41 3.9375 38.4375 C3.958125 37.633125 3.97875 36.82875 4 36 C4.78375 35.9175 5.5675 35.835 6.375 35.75 C9.06141884 35.25307028 9.06141884 35.25307028 10.375 33.3125 C11.708394 28.37894219 9.6517506 23.72973252 7.71484375 19.19921875 C7.04291992 17.61077148 7.04291992 17.61077148 6.35742188 15.99023438 C5.65456055 14.35538086 5.65456055 14.35538086 4.9375 12.6875 C4.00772598 10.50449715 3.07926452 8.32093464 2.15234375 6.13671875 C1.73976318 5.17467529 1.32718262 4.21263184 0.90209961 3.22143555 C0 1 0 1 0 0 Z " fill="#FC7D3F" transform="translate(1085,585)"/>
<path d="M0 0 C2.87305972 1.40460697 4.74510999 2.74510999 7 5 C7 5.99 7 6.98 7 8 C4.125 8.625 4.125 8.625 1 9 C0.34 8.34 -0.32 7.68 -1 7 C-4.58343976 6.83322718 -4.58343976 6.83322718 -8 7 C-8 8.32 -8 9.64 -8 11 C-7.26394531 11.15855469 -6.52789063 11.31710937 -5.76953125 11.48046875 C4.60098161 13.96007618 4.60098161 13.96007618 8 19 C8.7446324 22.97137281 8.37266878 24.44099683 6.125 27.8125 C2.96658127 31.0638134 1.11431547 31.17811666 -3.3125 31.25 C-7.64941418 31.19884374 -10.74088837 31.15047458 -14 28 C-14.875 25.375 -14.875 25.375 -15 23 C-14 22 -14 22 -11.625 21.75 C-9 22 -9 22 -7.5625 23.5625 C-7.046875 24.036875 -6.53125 24.51125 -6 25 C-2.85078091 24.76716851 -2.85078091 24.76716851 0 24 C-0.07782738 22.04001917 -0.07782738 22.04001917 -1 20 C-3.47513229 18.744158 -3.47513229 18.744158 -6.4375 17.9375 C-11.79291553 16.3106267 -11.79291553 16.3106267 -14 13 C-14.57508897 7.82419929 -14.57508897 7.82419929 -14 5 C-9.57064328 0.45408126 -6.25837361 -0.42429652 0 0 Z " fill="#FC854A" transform="translate(603,584)"/>
<path d="M0 0 C5.56701031 2.88659794 5.56701031 2.88659794 6.875 6.25 C6.91625 6.8275 6.9575 7.405 7 8 C4.125 8.625 4.125 8.625 1 9 C0.34 8.34 -0.32 7.68 -1 7 C-3.58354218 6.83312552 -3.58354218 6.83312552 -6 7 C-6 8.32 -6 9.64 -6 11 C-5.32453125 11.15855469 -4.6490625 11.31710937 -3.953125 11.48046875 C0.25683182 12.58162798 3.32029322 13.4012107 6.625 16.3125 C8.30377527 19.59374258 8.60649047 21.36105716 8 25 C6.20006226 27.69990662 4.916227 29.5418865 2 31 C-2.41041684 31.50445944 -6.98982059 31.98792499 -11.05859375 29.98828125 C-12.6875 28.6875 -12.6875 28.6875 -15 26 C-15 25.01 -15 24.02 -15 23 C-13.02 22.67 -11.04 22.34 -9 22 C-9 22.66 -9 23.32 -9 24 C-6.36 24.33 -3.72 24.66 -1 25 C-0.34 23.35 0.32 21.7 1 20 C0.25234375 19.82984375 -0.4953125 19.6596875 -1.265625 19.484375 C-2.25046875 19.24203125 -3.2353125 18.9996875 -4.25 18.75 C-5.22453125 18.51796875 -6.1990625 18.2859375 -7.203125 18.046875 C-10.37594304 16.85928389 -11.89997585 15.63849189 -14 13 C-14.5625 9.5625 -14.5625 9.5625 -14 6 C-9.62039058 0.69836754 -6.83684032 -0.56973669 0 0 Z " fill="#FD7F41" transform="translate(1074,584)"/>
<path d="M0 0 C5.56701031 2.88659794 5.56701031 2.88659794 6.875 6.25 C6.91625 6.8275 6.9575 7.405 7 8 C4.625 8.625 4.625 8.625 2 9 C1.34 8.34 0.68 7.68 0 7 C-3.08347826 6.83318891 -3.08347826 6.83318891 -6 7 C-6 8.32 -6 9.64 -6 11 C-5.32453125 11.17015625 -4.6490625 11.3403125 -3.953125 11.515625 C5.62803235 14.11859838 5.62803235 14.11859838 8 18 C8.61984499 22.26143432 8.49311964 24.24388322 6.125 27.875 C2.99960513 31.00039487 1.07913627 31.22123286 -3.25 31.375 C-7.14061791 31.34943746 -9.61048361 31.14468575 -12.6875 28.6875 C-15 26 -15 26 -15 23 C-12.1875 22.3125 -12.1875 22.3125 -9 22 C-8 23 -7 24 -6 25 C-2.37464024 25.2503577 -2.37464024 25.2503577 1 25 C0.67 23.35 0.34 21.7 0 20 C-1.01320313 19.76216797 -1.01320313 19.76216797 -2.046875 19.51953125 C-6.25683182 18.41837202 -9.32029322 17.5987893 -12.625 14.6875 C-14.31625368 11.38186781 -14.68653822 9.66153717 -14 6 C-9.55425886 0.73530654 -6.87305976 -0.57275498 0 0 Z " fill="#FD8246" transform="translate(1132,584)"/>
<path d="M0 0 C2.31 0 4.62 0 7 0 C7 2.97 7 5.94 7 9 C9.64 9 12.28 9 15 9 C15 10.65 15 12.3 15 14 C12.36 14 9.72 14 7 14 C7.33 19.94 7.66 25.88 8 32 C10.31 32 12.62 32 15 32 C15.04254356 33.99954746 15.04080783 36.00041636 15 38 C13.34233202 39.65766798 11.39653595 39.21049503 9.125 39.25 C8.24070312 39.27578125 7.35640625 39.3015625 6.4453125 39.328125 C4 39 4 39 2.2421875 37.671875 C0.05325471 34.7257642 -0.12139968 32.0885526 -0.09765625 28.55078125 C-0.09282227 27.27944336 -0.09282227 27.27944336 -0.08789062 25.98242188 C-0.07951172 25.10134766 -0.07113281 24.22027344 -0.0625 23.3125 C-0.05798828 22.41982422 -0.05347656 21.52714844 -0.04882812 20.60742188 C-0.03704983 18.40488013 -0.02060164 16.20247401 0 14 C-1.32 14 -2.64 14 -4 14 C-4 12.35 -4 10.7 -4 9 C-2.68 9 -1.36 9 0 9 C0 6.03 0 3.06 0 0 Z " fill="#FD8A51" transform="translate(618,576)"/>
<path d="M0 0 C1 1 1 1 1.0625 3.5625 C1.041875 4.366875 1.02125 5.17125 1 6 C-1.31 6.66 -3.62 7.32 -6 8 C-6.33 9.65 -6.66 11.3 -7 13 C-4.69 13 -2.38 13 0 13 C0 14.65 0 16.3 0 18 C-2.31 18 -4.62 18 -7 18 C-7 26.25 -7 34.5 -7 43 C-8.98 43 -10.96 43 -13 43 C-13 34.75 -13 26.5 -13 18 C-14.32 18 -15.64 18 -17 18 C-17 16.35 -17 14.7 -17 13 C-15.68 13 -14.36 13 -13 13 C-13.103125 11.783125 -13.20625 10.56625 -13.3125 9.3125 C-13.29408036 5.85574718 -13.02409685 5.03614527 -11 2 C-6.94353925 -0.70430716 -4.79816514 -0.47981651 0 0 Z " fill="#FD7C3E" transform="translate(782,572)"/>
<path d="M0 0 C1.98 0 3.96 0 6 0 C6 2.97 6 5.94 6 9 C8.64 9 11.28 9 14 9 C14 10.65 14 12.3 14 14 C11.36 14 8.72 14 6 14 C6.14019692 16.81288705 6.28687955 19.62516885 6.4375 22.4375 C6.47681641 23.23994141 6.51613281 24.04238281 6.55664062 24.86914062 C6.4054296 28.75239561 6.4054296 28.75239561 8 32 C9.99958364 32.04080783 12.00045254 32.04254356 14 32 C14.04254356 33.99954746 14.04080783 36.00041636 14 38 C12.43058802 39.56941198 10.85865006 39.2449847 8.6875 39.3125 C7.51767578 39.36857422 7.51767578 39.36857422 6.32421875 39.42578125 C4 39 4 39 1.72265625 37.65234375 C-1.02380582 33.42366406 -0.42029936 29.16903147 -0.25 24.25 C-0.23195313 23.26644531 -0.21390625 22.28289063 -0.1953125 21.26953125 C-0.14824126 18.84536217 -0.08250742 16.42317941 0 14 C-1.65 14 -3.3 14 -5 14 C-5 12.35 -5 10.7 -5 9 C-3.35 9 -1.7 9 0 9 C0 6.03 0 3.06 0 0 Z " fill="#FD8145" transform="translate(1148,576)"/>
<path d="M0 0 C1.98 0 3.96 0 6 0 C6 13.86 6 27.72 6 42 C4.02 42 2.04 42 0 42 C0 40.02 0 38.04 0 36 C-0.66 35.67 -1.32 35.34 -2 35 C-1.505 34.505 -1.505 34.505 -1 34 C-0.59817604 27.93718558 -1.11210477 21.99329281 -2 16 C-1.67 16 -1.34 16 -1 16 C-0.67 10.72 -0.34 5.44 0 0 Z " fill="#FD8043" transform="translate(906,573)"/>
<path d="M0 0 C0.33 0 0.66 0 1 0 C1.17280461 11.52074711 1.33917288 23.04157949 1.5 34.5625 C1.51187725 35.41306095 1.5237545 36.2636219 1.53599167 37.13995743 C1.92893738 65.42865258 2.13011037 93.70822377 2 122 C9.26 122 16.52 122 24 122 C24 106.16 24 90.32 24 74 C24.33 74 24.66 74 25 74 C25 90.5 25 107 25 124 C16.75 124 8.5 124 0 124 C0 83.08 0 42.16 0 0 Z " fill="#2F7B8F" transform="translate(541,417)"/>
<path d="M0 0 C1.98 0 3.96 0 6 0 C6 13.86 6 27.72 6 42 C4.02 42 2.04 42 0 42 C0 28.14 0 14.28 0 0 Z " fill="#FD7D3F" transform="translate(542,573)"/>
<path d="M0 0 C3.375 1.0625 3.375 1.0625 5.3125 2.625 C6.82946251 6.10509047 6.94018679 9.36309558 6.375 13.0625 C5.21867254 15.42543002 4.22516245 17.21233755 2.375 19.0625 C-1.33612269 19.41260591 -3.77480006 19.54209996 -7.0625 17.6875 C-9.50240848 13.58845376 -9.47791485 9.70115972 -8.625 5.0625 C-5.99452609 0.99722214 -4.86569582 0.08389131 0 0 Z " fill="#FEF5E9" transform="translate(799.625,589.9375)"/>
<path d="M0 0 C4.39159221 1.38253829 4.39159221 1.38253829 6.375 4.0625 C6.7734375 6.62109375 6.7734375 6.62109375 6.75 9.5 C6.75773438 10.44746094 6.76546875 11.39492188 6.7734375 12.37109375 C6.31177142 15.48960283 5.62781048 16.87085179 3.375 19.0625 C0.66738135 19.75578139 -1.88208359 19.54351248 -4.625 19.0625 C-7.29931489 17.25086733 -7.58420359 16.18488923 -8.625 13.0625 C-9.10127138 8.85543612 -9.0189009 6.0175688 -6.5625 2.5625 C-3.625 0.0625 -3.625 0.0625 0 0 Z " fill="#FEF5E8" transform="translate(569.625,589.9375)"/>
<path d="M0 0 C3.375 1.1875 3.375 1.1875 5.3125 3.8125 C6.50590385 7.60331224 6.87750381 10.23925578 6.375 14.1875 C4.8125 17.125 4.8125 17.125 2.375 19.1875 C-1.49516423 19.80949068 -3.6346437 19.74616253 -7.0625 17.8125 C-9.50240848 13.71345376 -9.47791485 9.82615972 -8.625 5.1875 C-6.0049254 1.1382938 -4.83025924 0.249841 0 0 Z " fill="#FEF4E7" transform="translate(899.625,589.8125)"/>
<path d="M0 0 C2.38055049 1.72673733 2.93681281 2.62713867 3.43359375 5.55859375 C3.44405103 13.26560791 3.44405103 13.26560791 1.375 16.6875 C-1.73205231 18.40455522 -3.49968658 18.58338557 -7 18 C-9.30275556 16.1329009 -10.67823871 14.64352259 -12 12 C-12.39447548 7.81855989 -12.45035186 5.69053952 -10.125 2.125 C-6.58037009 -1.41962991 -4.78959981 -1.17296322 0 0 Z " fill="#FEF4E7" transform="translate(734,591)"/>
<path d="M0 0 C2 1.4375 2 1.4375 3 4 C3.53653453 8.7936282 3.60311585 12.80558011 1 17 C-1.84083641 18.42041821 -3.85477278 18.31452272 -7 18 C-9.375 16.6875 -9.375 16.6875 -11 14 C-12.23255125 4.74894122 -12.23255125 4.74894122 -9.72265625 1.1875 C-6.67465685 -0.91361523 -3.54508781 -0.63516157 0 0 Z " fill="#FEF6EB" transform="translate(1030,591)"/>
<path d="M0 0 C0.33 0 0.66 0 1 0 C1 7.59 1 15.18 1 23 C-0.98 23 -2.96 23 -5 23 C-5.33 22.34 -5.66 21.68 -6 21 C-6.56847656 21.32097656 -7.13695312 21.64195312 -7.72265625 21.97265625 C-11.45166824 23.65486921 -14.99524022 23.68408708 -19 23 C-22.0625 20.9375 -22.0625 20.9375 -24 18 C-24.625 14.5 -24.625 14.5 -24 11 C-21.875 8.0625 -21.875 8.0625 -19 6 C-15.6875 5.6875 -15.6875 5.6875 -13 6 C-15 7 -17 8 -19 9 C-13.06 8.505 -13.06 8.505 -7 8 C-7 8.66 -7 9.32 -7 10 C-10.3 10.33 -13.6 10.66 -17 11 C-17 12.65 -17 14.3 -17 16 C-15.91031326 17.30880966 -15.91031326 17.30880966 -13.25 17.1875 C-10.03256076 17.00187851 -7.89243317 16.36114502 -5 15 C-5 15.66 -5 16.32 -5 17 C-4.34 17 -3.68 17 -3 17 C-3 18.32 -3 19.64 -3 21 C-2.01 21 -1.02 21 0 21 C0 14.07 0 7.14 0 0 Z " fill="#FC7B3B" transform="translate(675,592)"/>
<path d="M0 0 C0.33 0 0.66 0 1 0 C1.33 2.31 1.66 4.62 2 7 C2.51820312 6.67386719 3.03640625 6.34773437 3.5703125 6.01171875 C6.77712174 4.67640751 9.40971608 4.77151277 12.875 4.8125 C14.66550781 4.82216797 14.66550781 4.82216797 16.4921875 4.83203125 C19.74310485 4.98769878 22.80665108 5.38965044 26 6 C26 6.33 26 6.66 26 7 C19.4 7 12.8 7 6 7 C6.66 8.98 7.32 10.96 8 13 C9.258125 13.185625 10.51625 13.37125 11.8125 13.5625 C12.52019531 13.66691406 13.22789063 13.77132812 13.95703125 13.87890625 C16.2025342 14.13904799 16.2025342 14.13904799 19 13 C19.33 12.34 19.66 11.68 20 11 C22.97 11.495 22.97 11.495 26 12 C25.70327903 14.76939575 24.9500454 16.0620126 23.1875 18.25 C18.2545448 20.95828913 13.4989499 20.87060506 8 20 C4.03623397 18.08253766 1.59873476 15.06950666 0 11 C-0.1953125 8.203125 -0.1953125 8.203125 -0.125 5.25 C-0.09792969 3.77273438 -0.09792969 3.77273438 -0.0703125 2.265625 C-0.04710937 1.51796875 -0.02390625 0.7703125 0 0 Z " fill="#FD7B3C" transform="translate(1166,595)"/>
<path d="M0 0 C3.23729119 2.49541196 5.76300366 5.06410254 7 9 C7 11.64 7 14.28 7 17 C0.07 17 -6.86 17 -14 17 C-14.33 17.99 -14.66 18.98 -15 20 C-14.814375 19.113125 -14.62875 18.22625 -14.4375 17.3125 C-13.82714779 14.08178602 -13.82714779 14.08178602 -14.5625 11.25 C-14.706875 10.5075 -14.85125 9.765 -15 9 C-14.34 8.34 -13.68 7.68 -13 7 C-13.33 8.65 -13.66 10.3 -14 12 C-9.38 12 -4.76 12 0 12 C-1.44722424 6.89127204 -1.44722424 6.89127204 -5.125 5.1875 C-6.07375 4.795625 -7.0225 4.40375 -8 4 C-7.360625 3.855625 -6.72125 3.71125 -6.0625 3.5625 C-4.02454854 3.18992819 -4.02454854 3.18992819 -3 2 C-8.08303686 1.88679144 -8.08303686 1.88679144 -13 3 C-13.66 2.67 -14.32 2.34 -15 2 C-10.32256715 -1.8978607 -5.61538849 -1.523913 0 0 Z " fill="#FC7E40" transform="translate(998,585)"/>
<path d="M0 0 C2.31 0 4.62 0 7 0 C5.51009433 3.9665471 4.01661706 7.93172639 2.52001953 11.89575195 C2.01288502 13.24044628 1.50667631 14.58549019 1.00146484 15.9309082 C-7.27560621 37.96758549 -7.27560621 37.96758549 -11 41 C-14.625 41.75 -14.625 41.75 -18 42 C-19 41 -19 41 -19.0625 38.4375 C-19.041875 37.633125 -19.02125 36.82875 -19 36 C-18.21625 35.9175 -17.4325 35.835 -16.625 35.75 C-13.96704507 35.24628119 -13.96704507 35.24628119 -12.625 33.4375 C-11.68411462 29.76804702 -12.3790554 26.7256676 -13 23 C-12.34 23 -11.68 23 -11 23 C-10.34 25.64 -9.68 28.28 -9 31 C-6.29313604 28.64371369 -5.19446555 26.4604396 -3.95703125 23.11328125 C-3.60576172 22.17548828 -3.25449219 21.23769531 -2.89257812 20.27148438 C-2.53615234 19.29501953 -2.17972656 18.31855469 -1.8125 17.3125 C-1.44447266 16.32443359 -1.07644531 15.33636719 -0.69726562 14.31835938 C0.20918904 11.88152671 1.10794452 9.44213269 2 7 C0.5067314 8.4932686 -0.45264145 10.26965157 -1.5625 12.0625 C-2.01753906 12.79597656 -2.47257812 13.52945313 -2.94140625 14.28515625 C-3.29074219 14.85105469 -3.64007812 15.41695312 -4 16 C-5.16161779 13.13421241 -4.9946154 11.98369837 -4.00390625 8.984375 C-3.52824219 7.91703125 -3.05257813 6.8496875 -2.5625 5.75 C-2.08941406 4.67234375 -1.61632813 3.5946875 -1.12890625 2.484375 C-0.75636719 1.66453125 -0.38382813 0.8446875 0 0 Z " fill="#FC7D3F" transform="translate(1108,585)"/>
<path d="M0 0 C1.32 0 2.64 0 4 0 C4.02492452 4.12596703 4.04296521 8.25190422 4.05493164 12.37792969 C4.05992616 13.77832809 4.06672408 15.17872137 4.07543945 16.57910156 C4.16225376 30.898355 4.16225376 30.898355 3 38 C2.01 38 1.02 38 0 38 C-0.495 36.515 -0.495 36.515 -1 35 C-1.66 34.34 -2.32 33.68 -3 33 C-3.22705078 31.12060547 -3.22705078 31.12060547 -3.1953125 28.8671875 C-3.18886719 28.06152344 -3.18242188 27.25585938 -3.17578125 26.42578125 C-3.15064453 25.16314453 -3.15064453 25.16314453 -3.125 23.875 C-3.11597656 23.02550781 -3.10695313 22.17601562 -3.09765625 21.30078125 C-3.07405647 19.20040116 -3.03818483 17.10016556 -3 15 C-2.34 14.67 -1.68 14.34 -1 14 C-0.52998967 10.72444392 -0.52998967 10.72444392 -0.375 6.9375 C-0.30023437 5.64714844 -0.22546875 4.35679687 -0.1484375 3.02734375 C-0.09945312 2.02832031 -0.05046875 1.02929688 0 0 Z " fill="#FD884E" transform="translate(739,575)"/>
<path d="M0 0 C2.65050197 0.35817594 4.70634631 0.83982526 7.0625 2.125 C9.4619665 3.20863003 10.57028208 2.8677564 13 2 C12 4 11 6 10 8 C9.84932786 9.4465242 9.75138964 10.8987934 9.68359375 12.3515625 C9.64169922 13.20234375 9.59980469 14.053125 9.55664062 14.9296875 C9.51732422 15.81914063 9.47800781 16.70859375 9.4375 17.625 C9.39431641 18.5221875 9.35113281 19.419375 9.30664062 20.34375 C9.20043139 22.56234283 9.09838806 24.7810488 9 27 C7.68 27 6.36 27 5 27 C4.34 27.66 3.68 28.32 3 29 C2.67 21.74 2.34 14.48 2 7 C-0.475 6.01 -0.475 6.01 -3 5 C-2.01 4.67 -1.02 4.34 0 4 C-0.33 3.01 -0.66 2.02 -1 1 C-0.67 0.67 -0.34 0.34 0 0 Z " fill="#FD8E56" transform="translate(1214,586)"/>
<path d="M0 0 C1.32 0.33 2.64 0.66 4 1 C3.01 1 2.02 1 1 1 C1 1.99 1 2.98 1 4 C2.65 4.33 4.3 4.66 6 5 C6.33 11.27 6.66 17.54 7 24 C8.51421001 22.48578999 8.21309856 21.07527232 8.31640625 18.96484375 C8.35830078 18.15595703 8.40019531 17.34707031 8.44335938 16.51367188 C8.50233398 15.2384668 8.50233398 15.2384668 8.5625 13.9375 C8.60568359 13.08349609 8.64886719 12.22949219 8.69335938 11.34960938 C8.79976702 9.23327963 8.90041731 7.11666187 9 5 C9.33 5 9.66 5 10 5 C10.06058594 6.13179687 10.12117187 7.26359375 10.18359375 8.4296875 C10.26799917 9.91147145 10.35264717 11.3932416 10.4375 12.875 C10.47681641 13.62136719 10.51613281 14.36773438 10.55664062 15.13671875 C10.71573624 19.19986864 10.71573624 19.19986864 12 23 C14.31 23 16.62 23 19 23 C19.04254356 24.99954746 19.04080783 27.00041636 19 29 C17.34233202 30.65766798 15.39653595 30.21049503 13.125 30.25 C12.24070312 30.27578125 11.35640625 30.3015625 10.4453125 30.328125 C8 30 8 30 6.2421875 28.671875 C4.05325471 25.7257642 3.87860032 23.0885526 3.90234375 19.55078125 C3.90717773 18.27944336 3.90717773 18.27944336 3.91210938 16.98242188 C3.92048828 16.10134766 3.92886719 15.22027344 3.9375 14.3125 C3.94201172 13.41982422 3.94652344 12.52714844 3.95117188 11.60742188 C3.96295017 9.40488013 3.97939836 7.20247401 4 5 C2.68 5 1.36 5 0 5 C0 3.35 0 1.7 0 0 Z " fill="#FD7B3C" transform="translate(614,585)"/>
<path d="M0 0 C1.65 0 3.3 0 5 0 C5.33 4.62 5.66 9.24 6 14 C6.66 14 7.32 14 8 14 C8.33 9.71 8.66 5.42 9 1 C9.33 1 9.66 1 10 1 C10.06058594 2.21558594 10.12117188 3.43117188 10.18359375 4.68359375 C10.26798332 6.26824228 10.3526321 7.85287702 10.4375 9.4375 C10.47681641 10.23994141 10.51613281 11.04238281 10.55664062 11.86914062 C10.4054296 15.75239561 10.4054296 15.75239561 12 19 C13.99958364 19.04080783 16.00045254 19.04254356 18 19 C18.04254356 20.99954746 18.04080783 23.00041636 18 25 C16.43058802 26.56941198 14.85865006 26.2449847 12.6875 26.3125 C11.90761719 26.34988281 11.12773438 26.38726563 10.32421875 26.42578125 C8 26 8 26 5.72265625 24.65234375 C2.97619418 20.42366406 3.57970064 16.16903147 3.75 11.25 C3.76804687 10.26644531 3.78609375 9.28289063 3.8046875 8.26953125 C3.85175874 5.84536217 3.91749258 3.42317941 4 1 C2.68 0.67 1.36 0.34 0 0 Z " fill="#FC7939" transform="translate(1144,589)"/>
<path d="M0 0 C3.5625 0.1875 3.5625 0.1875 5.5625 2.1875 C5.80300903 4.02249146 5.80300903 4.02249146 5.78955078 6.27001953 C5.78932419 7.53110031 5.78932419 7.53110031 5.78909302 8.81765747 C5.77877045 9.72603363 5.76844788 10.63440979 5.7578125 11.5703125 C5.7549826 12.49971649 5.75215271 13.42912048 5.74923706 14.38668823 C5.73802069 17.3620885 5.7129136 20.33719035 5.6875 23.3125 C5.67747208 25.32681858 5.6683459 27.34114186 5.66015625 29.35546875 C5.63807661 34.29959456 5.60353693 39.24349665 5.5625 44.1875 C4.9025 44.1875 4.2425 44.1875 3.5625 44.1875 C3.5625 30.3275 3.5625 16.4675 3.5625 2.1875 C1.5825 2.1875 -0.3975 2.1875 -2.4375 2.1875 C-2.4375 16.0475 -2.4375 29.9075 -2.4375 44.1875 C-2.7675 44.1875 -3.0975 44.1875 -3.4375 44.1875 C-3.60470361 38.08210368 -3.76530433 31.97658383 -3.91967773 25.87084961 C-3.97318107 23.79202552 -4.02851658 21.71324778 -4.08569336 19.63452148 C-4.16737259 16.65358477 -4.24254838 13.67254569 -4.31640625 10.69140625 C-4.34344131 9.75599503 -4.37047638 8.8205838 -4.39833069 7.85682678 C-4.41842697 6.99600998 -4.43852325 6.13519318 -4.45922852 5.24829102 C-4.47921402 4.48662125 -4.49919952 3.72495148 -4.51979065 2.94020081 C-4.365868 -0.33818314 -3.3446962 0.18243797 0 0 Z " fill="#FEE9D9" transform="translate(544.4375,570.8125)"/>
<path d="M0 0 C3.5 1.5 3.5 1.5 6 3 C6 4.65 6 6.3 6 8 C5.01 8.495 5.01 8.495 4 9 C2.86649466 11.01669827 2.86649466 11.01669827 2 13 C1.5359375 11.7934375 1.5359375 11.7934375 1.0625 10.5625 C0.23664655 8.10919595 0.23664655 8.10919595 -1 7 C-4.45821402 6.74996036 -4.45821402 6.74996036 -8 7 C-8.66 7.66 -9.32 8.32 -10 9 C-13.125 9.125 -13.125 9.125 -16 9 C-15.04872818 5.57542144 -14.07456145 4.06568509 -11.375 1.6875 C-7.32196545 -0.33901727 -4.44136402 -0.76666403 0 0 Z " fill="#FC8145" transform="translate(668,584)"/>
<path d="M0 0 C8.58 0 17.16 0 26 0 C26 0.33 26 0.66 26 1 C18.08 1 10.16 1 2 1 C2 10.9 2 20.8 2 31 C7.69865768 30.96062922 7.69865768 30.96062922 13.3972168 30.90991211 C17.39899719 30.8959999 21.09568213 30.99012552 25 32 C25 32.33 25 32.66 25 33 C16.75 33 8.5 33 0 33 C0 22.11 0 11.22 0 0 Z " fill="#F9F9EF" transform="translate(915,487)"/>
<path d="M0 0 C0.99 0.33 1.98 0.66 3 1 C-0.3 9.58 -3.6 18.16 -7 27 C-7.99 26.67 -8.98 26.34 -10 26 C-10.33 23.03 -10.66 20.06 -11 17 C-11.99 16.67 -12.98 16.34 -14 16 C-12 13 -12 13 -10 12 C-10 13.32 -10 14.64 -10 16 C-9.34 15.01 -8.68 14.02 -8 13 C-6.629713 11.1076989 -5.23818186 9.27098535 -3.6953125 7.515625 C-0.66666235 4.25917649 -0.66666235 4.25917649 0 0 Z " fill="#FC8A51" transform="translate(1108,591)"/>
<path d="M0 0 C0.5775 0.78375 1.155 1.5675 1.75 2.375 C3.82897637 4.80047244 5.09040333 5.85694417 8 7 C8 6.01 8 5.02 8 4 C7.34 4 6.68 4 6 4 C6.33 3.34 6.66 2.68 7 2 C7.99 2.66 8.98 3.32 10 4 C12.29714187 4.02639829 12.29714187 4.02639829 14.6875 3.625 C15.89986328 3.45871094 15.89986328 3.45871094 17.13671875 3.2890625 C17.75160156 3.19367187 18.36648438 3.09828125 19 3 C19 2.34 19 1.68 19 1 C21.97 1.495 21.97 1.495 25 2 C24.11593727 4.97366555 23.31696033 6.7127547 21 8.8125 C16.62646085 10.54369258 12.64110353 10.68317044 8 10 C4.14455202 8.00342873 2.40194908 6.60292362 0 3 C0 2.01 0 1.02 0 0 Z " fill="#FC7B3A" transform="translate(979,605)"/>
<path d="M0 0 C2.31 0 4.62 0 7 0 C7 9.9 7 19.8 7 30 C5.02 30 3.04 30 1 30 C1.33 28.68 1.66 27.36 2 26 C2 26.66 2 27.32 2 28 C2.99 28 3.98 28 5 28 C5 19.09 5 10.18 5 1 C4.01 1 3.02 1 2 1 C2.33 6.94 2.66 12.88 3 19 C2.01 19.33 1.02 19.66 0 20 C0 13.4 0 6.8 0 0 Z " fill="#FD7E3E" transform="translate(838,585)"/>
<path d="M0 0 C1.98 0 3.96 0 6 0 C6 6.6 6 13.2 6 20 C5.34 19.01 4.68 18.02 4 17 C2.68 18.32 1.36 19.64 0 21 C0 14.07 0 7.14 0 0 Z " fill="#FD7C3D" transform="translate(819,585)"/>
<path d="M0 0 C0.99 0 1.98 0 3 0 C4.68114702 5.63678706 4.97691212 9.13852731 4 15 C3.9043687 19.00141472 3.94085913 22.9981345 4 27 C2.68 27 1.36 27 0 27 C0 18.09 0 9.18 0 0 Z " fill="#FD8950" transform="translate(685,586)"/>
<path d="M0 0 C2.8125 1.25 2.8125 1.25 5 3 C5.8125 5.1875 5.8125 5.1875 6 7 C5.2575 6.319375 4.515 5.63875 3.75 4.9375 C1.24050936 2.71646324 1.24050936 2.71646324 -1.3125 3.25 C-2.1478125 3.62125 -2.1478125 3.62125 -3 4 C-3 4.66 -3 5.32 -3 6 C-3.969375 6.45375 -4.93875 6.9075 -5.9375 7.375 C-9.07079582 8.65786221 -9.07079582 8.65786221 -10 11 C-10.15123831 12.5195764 -10.24881693 14.04472502 -10.31640625 15.5703125 C-10.35830078 16.46621094 -10.40019531 17.36210938 -10.44335938 18.28515625 C-10.48267578 19.22230469 -10.52199219 20.15945313 -10.5625 21.125 C-10.62727539 22.54232422 -10.62727539 22.54232422 -10.69335938 23.98828125 C-10.79959072 26.32537092 -10.90163176 28.6625683 -11 31 C-12.98 31 -14.96 31 -17 31 C-17 24.4 -17 17.8 -17 11 C-16.67 11 -16.34 11 -16 11 C-16 16.94 -16 22.88 -16 29 C-14.68 29 -13.36 29 -12 29 C-12.04640625 27.69804688 -12.0928125 26.39609375 -12.140625 25.0546875 C-12.17815847 23.32814804 -12.21455693 21.60158364 -12.25 19.875 C-12.28351563 19.0190625 -12.31703125 18.163125 -12.3515625 17.28125 C-12.44043755 11.50437155 -11.71957126 8.46641431 -8 4 C-8.66 3.67 -9.32 3.34 -10 3 C-6.68588466 -0.05918339 -4.46341716 -0.54654088 0 0 Z " fill="#FC7735" transform="translate(1235,584)"/>
<path d="M0 0 C0.33 0 0.66 0 1 0 C1.33 2.31 1.66 4.62 2 7 C2.51820312 6.67386719 3.03640625 6.34773437 3.5703125 6.01171875 C6.77712174 4.67640751 9.40971608 4.77151277 12.875 4.8125 C14.66550781 4.82216797 14.66550781 4.82216797 16.4921875 4.83203125 C19.74310485 4.98769878 22.80665108 5.38965044 26 6 C26 6.33 26 6.66 26 7 C19.4 7 12.8 7 6 7 C6.66 8.98 7.32 10.96 8 13 C8.99 13.33 9.98 13.66 11 14 C8.50907189 15.24546405 7.58919267 14.7767578 5 14 C5.66 15.32 6.32 16.64 7 18 C4.49303771 17.04908327 3.05598755 16.06198622 1.25 14.0625 C-0.63654688 9.44046014 -0.23305871 4.92876009 0 0 Z " fill="#FC7B3B" transform="translate(1166,595)"/>
<path d="M0 0 C0.33 0 0.66 0 1 0 C1 9.24 1 18.48 1 28 C-6.92 28 -14.84 28 -23 28 C-21 26 -21 26 -18.93701172 25.77294922 C-18.10959473 25.78342285 -17.28217773 25.79389648 -16.4296875 25.8046875 C-15.53378906 25.81113281 -14.63789062 25.81757812 -13.71484375 25.82421875 C-12.30912109 25.84935547 -12.30912109 25.84935547 -10.875 25.875 C-9.93011719 25.88402344 -8.98523437 25.89304687 -8.01171875 25.90234375 C-5.67422708 25.92595478 -3.33723877 25.95888484 -1 26 C-1.00785522 24.8718689 -1.00785522 24.8718689 -1.01586914 23.72094727 C-1.03657227 20.33480658 -1.04963877 16.94867916 -1.0625 13.5625 C-1.07087891 12.37849609 -1.07925781 11.19449219 -1.08789062 9.97460938 C-1.09272461 8.28754883 -1.09272461 8.28754883 -1.09765625 6.56640625 C-1.10289307 5.52427979 -1.10812988 4.48215332 -1.11352539 3.40844727 C-1 1 -1 1 0 0 Z " fill="#0F7086" transform="translate(1213,513)"/>
<path d="M0 0 C2.05078125 0.03255208 4.1015625 0.06510417 6.15234375 0.09765625 C7.30844082 2.40985038 7.24319476 3.61496321 7.17407227 6.18017578 C7.14392784 7.44125656 7.14392784 7.44125656 7.11317444 8.72781372 C7.07262184 10.09037796 7.07262184 10.09037796 7.03125 11.48046875 C7.00763901 12.40987274 6.98402802 13.33927673 6.95970154 14.29684448 C6.88298285 17.27226731 6.79899384 20.24743521 6.71484375 23.22265625 C6.66163128 25.23696659 6.60889083 27.25128947 6.55664062 29.265625 C6.42735659 34.20979757 6.29155082 39.15375352 6.15234375 44.09765625 C5.82234375 44.09765625 5.49234375 44.09765625 5.15234375 44.09765625 C5.15234375 30.23765625 5.15234375 16.37765625 5.15234375 2.09765625 C3.17234375 2.09765625 1.19234375 2.09765625 -0.84765625 2.09765625 C-0.84765625 7.04765625 -0.84765625 11.99765625 -0.84765625 17.09765625 C-1.50765625 17.09765625 -2.16765625 17.09765625 -2.84765625 17.09765625 C-4.02064927 13.57867718 -3.77507108 11.15884789 -3.47265625 7.47265625 C-3.38242187 6.30476562 -3.2921875 5.136875 -3.19921875 3.93359375 C-2.72946708 0.14426359 -2.72946708 0.14426359 0 0 Z " fill="#FEE0CB" transform="translate(906.84765625,570.90234375)"/>
<path d="M0 0 C3.05589809 2.01411465 4.35238805 3.44178883 5.75 6.8125 C5.4375 9.125 5.4375 9.125 4.75 10.8125 C4.42 9.1625 4.09 7.5125 3.75 5.8125 C0.78 5.1525 -2.19 4.4925 -5.25 3.8125 C-4.92 3.1525 -4.59 2.4925 -4.25 1.8125 C-7.16652174 1.64568891 -7.16652174 1.64568891 -10.25 1.8125 C-12.60953094 4.17203094 -12.74141413 5.59145617 -13.25 8.8125 C-13.58 8.1525 -13.91 7.4925 -14.25 6.8125 C-15.9 7.4725 -17.55 8.1325 -19.25 8.8125 C-18.77695318 4.55507863 -16.3636178 2.55544902 -13.25 -0.1875 C-8.51800479 -1.76483174 -4.69388532 -1.71507348 0 0 Z " fill="#FD7F42" transform="translate(1186.25,585.1875)"/>
<path d="M0 0 C0.91007813 0.00902344 1.82015625 0.01804687 2.7578125 0.02734375 C3.45648437 0.03894531 4.15515625 0.05054688 4.875 0.0625 C4.55342796 3.03704134 4.25360258 4.65585278 2.1875 6.875 C-0.78168891 8.39971863 -2.82978441 8.42067561 -6.125 8.0625 C-6.785 7.4025 -7.445 6.7425 -8.125 6.0625 C-7.875 3.5 -7.875 3.5 -7.125 1.0625 C-4.60024538 -0.19987731 -2.81299534 -0.03606404 0 0 Z " fill="#FDF3E7" transform="translate(665.125,601.9375)"/>
<path d="M0 0 C1.9375 1.25 1.9375 1.25 3 3 C3 4.32 3 5.64 3 7 C-1.62 7 -6.24 7 -11 7 C-9.29343968 0.17375874 -7.0070338 -0.75075362 0 0 Z " fill="#FDF7ED" transform="translate(1183,590)"/>
<path d="M0 0 C0.99 0.495 0.99 0.495 2 1 C2 4.63 2 8.26 2 12 C2.99 12.33 3.98 12.66 5 13 C5.33 8.71 5.66 4.42 6 0 C6.33 0 6.66 0 7 0 C7 7.59 7 15.18 7 23 C5.02 23 3.04 23 1 23 C0.67 15.41 0.34 7.82 0 0 Z " fill="#FD7532" transform="translate(702,592)"/>
<path d="M0 0 C3.5625 0.3125 3.5625 0.3125 5.5 1.5625 C6.5625 3.3125 6.5625 3.3125 6.5625 7.3125 C1.9425 7.3125 -2.6775 7.3125 -7.4375 7.3125 C-4.68278302 0.42570755 -4.68278302 0.42570755 0 0 Z " fill="#FDF8F0" transform="translate(991.4375,589.6875)"/>
<path d="M0 0 C0.33 0.66 0.66 1.32 1 2 C0.39671875 2.02578125 -0.2065625 2.0515625 -0.828125 2.078125 C-6.10535339 2.40331983 -6.10535339 2.40331983 -10.5625 5.0625 C-11.036875 5.701875 -11.51125 6.34125 -12 7 C-11.01 7 -10.02 7 -9 7 C-8.67 8.32 -8.34 9.64 -8 11 C-5.69 11.66 -3.38 12.32 -1 13 C-4.01031744 13.93423645 -4.86650268 14.04449911 -8 13 C-8.33 13.66 -8.66 14.32 -9 15 C-8.34 15.66 -7.68 16.32 -7 17 C-9.375 16.6875 -9.375 16.6875 -12 16 C-14.14385945 12.78421083 -14.4719871 10.768044 -14.39453125 6.9375 C-14 5 -14 5 -11.625 2.5625 C-7.40789891 0.05232078 -4.9456888 -0.09158683 0 0 Z " fill="#FD7E3F" transform="translate(603,584)"/>
<path d="M0 0 C2.27156356 2.114904 3.89690842 3.78773857 5.26293945 6.6003418 C6.79431239 9.26277968 6.79431239 9.26277968 9.72729492 9.65942383 C10.80084229 9.67513428 11.87438965 9.69084473 12.98046875 9.70703125 C14.14384766 9.73603516 15.30722656 9.76503906 16.50585938 9.79492188 C17.72080078 9.80072266 18.93574219 9.80652344 20.1875 9.8125 C22.02731445 9.85020508 22.02731445 9.85020508 23.90429688 9.88867188 C26.9365198 9.94766454 29.96729509 9.98385681 33 10 C33.33 9.34 33.66 8.68 34 8 C34.66 9.32 35.32 10.64 36 12 C31.99911307 12.24888281 28.00126335 12.42936435 23.99438477 12.54931641 C22.63486228 12.59934038 21.27587087 12.66739674 19.91821289 12.75439453 C8.65338534 13.45767058 8.65338534 13.45767058 4.50439453 9.79980469 C0 3.49206349 0 3.49206349 0 0 Z " fill="#086981" transform="translate(1241,529)"/>
<path d="M0 0 C0.33 0 0.66 0 1 0 C1 22.77 1 45.54 1 69 C1.66 69 2.32 69 3 69 C2.34 70.32 1.68 71.64 1 73 C0.67 73 0.34 73 0 73 C0 48.91 0 24.82 0 0 Z " fill="#FDFEFA" transform="translate(1214,413)"/>
<path d="M0 0 C1.32 0.66 2.64 1.32 4 2 C4.47875524 9.06163974 4.47875524 9.06163974 2.4375 13.0625 C0 15 0 15 -3.75 14.8125 C-4.8225 14.544375 -5.895 14.27625 -7 14 C-4.88929795 10.83394693 -3.26460973 9.80412643 0 8 C-0.34786708 6.02463255 -0.34786708 6.02463255 -1 4 C-1.66 3.67 -2.32 3.34 -3 3 C-2.01 2.01 -1.02 1.02 0 0 Z " fill="#FD8A51" transform="translate(1076,600)"/>
<path d="M0 0 C0.61875 0.28875 1.2375 0.5775 1.875 0.875 C2.865 1.205 3.855 1.535 4.875 1.875 C4.875 2.865 4.875 3.855 4.875 4.875 C3.92625 5.1225 2.9775 5.37 2 5.625 C-1.21338835 6.536178 -1.21338835 6.536178 -2.3125 8.9375 C-2.580625 9.576875 -2.84875 10.21625 -3.125 10.875 C-4.115 11.205 -5.105 11.535 -6.125 11.875 C-6.9375 8.6875 -6.9375 8.6875 -7.125 4.875 C-3.42347239 -0.20138073 -3.42347239 -0.20138073 0 0 Z " fill="#FC874E" transform="translate(776.125,572.125)"/>
<path d="M0 0 C1.98 0 3.96 0 6 0 C6 13.86 6 27.72 6 42 C4.02 42 2.04 42 0 42 C0 40.35 0 38.7 0 37 C0.33 37.99 0.66 38.98 1 40 C1.99 40 2.98 40 4 40 C4.33 27.13 4.66 14.26 5 1 C3.35 1 1.7 1 0 1 C0 0.67 0 0.34 0 0 Z " fill="#FC7838" transform="translate(738,573)"/>
<path d="M0 0 C0.66 0.66 1.32 1.32 2 2 C0.47974965 3.52025035 -1.21424537 3.4065868 -3.3125 3.75 C-6.95534313 4.50409173 -7.84817321 4.84447012 -10.5625 7.625 C-11.036875 8.40875 -11.51125 9.1925 -12 10 C-12.33 9.67 -12.66 9.34 -13 9 C-13.66 10.32 -14.32 11.64 -15 13 C-14.07021792 4.94188862 -14.07021792 4.94188862 -12 2 C-8.37780279 -0.78630555 -4.35727553 -0.28111455 0 0 Z " fill="#FD8A51" transform="translate(901,586)"/>
<path d="M0 0 C0.7425 0.495 0.7425 0.495 1.5 1 C5.09090894 2.43636358 8.14456127 2.12851462 12 2 C11.67 4.31 11.34 6.62 11 9 C4.6 9.36923077 4.6 9.36923077 1.5625 7.5 C1.046875 7.005 0.53125 6.51 0 6 C0.33 5.34 0.66 4.68 1 4 C1.33 4.33 1.66 4.66 2 5 C2.33 4.34 2.66 3.68 3 3 C2.01 2.67 1.02 2.34 0 2 C0 1.34 0 0.68 0 0 Z " fill="#FD7F40" transform="translate(1019,606)"/>
<path d="M0 0 C0.66 0.66 1.32 1.32 2 2 C3.9931567 2.02375926 3.9931567 2.02375926 6.125 1.625 C7.40375 1.41875 8.6825 1.2125 10 1 C10 1.66 10 2.32 10 3 C7.03 3.66 4.06 4.32 1 5 C1 5.66 1 6.32 1 7 C-1.74148672 6.62952882 -3.58593199 6.31412056 -5.8125 4.625 C-7 3 -7 3 -7 0 C-4.29393021 -1.35303489 -2.8671629 -0.7884698 0 0 Z " fill="#FD7D3E" transform="translate(1124,607)"/>
<path d="M0 0 C0.99 0.33 1.98 0.66 3 1 C3 1.99 3 2.98 3 4 C3.66 3.67 4.32 3.34 5 3 C7.3329866 2.95977609 9.66706666 2.95679753 12 3 C12.33 3.66 12.66 4.32 13 5 C11.9275 4.9175 10.855 4.835 9.75 4.75 C6.05489968 4.6802536 6.05489968 4.6802536 3.6875 6.5625 C1.59903214 9.5791758 0.82041442 12.44487087 0 16 C-0.33 16 -0.66 16 -1 16 C-1.19622241 11.78121808 -0.80230168 8.82989106 1 5 C0.34 5 -0.32 5 -1 5 C-1 5.66 -1 6.32 -1 7 C-1.99 7 -2.98 7 -4 7 C-4.33 7.99 -4.66 8.98 -5 10 C-4.56802365 5.2482602 -3.67230705 3.07999946 0 0 Z " fill="#FD7837" transform="translate(790,586)"/>
<path d="M0 0 C1.22589844 0.01353516 1.22589844 0.01353516 2.4765625 0.02734375 C3.41628906 0.04474609 3.41628906 0.04474609 4.375 0.0625 C4.045 1.0525 3.715 2.0425 3.375 3.0625 C1.704375 3.18625 1.704375 3.18625 0 3.3125 C-1.794375 3.68375 -1.794375 3.68375 -3.625 4.0625 C-4.85027948 6.01271083 -4.85027948 6.01271083 -5.625 8.0625 C-7.75 8.8125 -7.75 8.8125 -9.625 9.0625 C-10.375 7.3125 -10.375 7.3125 -10.625 5.0625 C-7.30088569 1.0506379 -5.10617403 -0.07294534 0 0 Z " fill="#FD8A52" transform="translate(568.625,585.9375)"/>
<path d="M0 0 C-0.99 0.33 -1.98 0.66 -3 1 C-3 1.66 -3 2.32 -3 3 C-1.68 3.33 -0.36 3.66 1 4 C0.030625 4.474375 -0.93875 4.94875 -1.9375 5.4375 C-4.80477437 6.70193947 -4.80477437 6.70193947 -6 8 C-7.99958364 8.04080783 -10.00045254 8.04254356 -12 8 C-9.83199867 1.31532922 -6.98981916 -0.47657858 0 0 Z " fill="#FD793B" transform="translate(664,585)"/>
<path d="M0 0 C2.875 2 2.875 2 5 4 C4.67 4.66 4.34 5.32 4 6 C3.5875 5.484375 3.175 4.96875 2.75 4.4375 C2.1725 3.963125 1.595 3.48875 1 3 C-1.16299211 3.22757731 -1.16299211 3.22757731 -3 4 C-3 4.66 -3 5.32 -3 6 C-5.66666667 7.33333333 -8.33333333 8.66666667 -11 10 C-10.66666667 8.66666667 -10.33333333 7.33333333 -10 6 C-9.87625 5.29875 -9.7525 4.5975 -9.625 3.875 C-8.10482151 -0.68553547 -4.04951226 -0.48594147 0 0 Z " fill="#FC8142" transform="translate(1217,584)"/>
<path d="M0 0 C2.31 0.33 4.62 0.66 7 1 C7 1.33 7 1.66 7 2 C5.35 2 3.7 2 2 2 C2 9.59 2 17.18 2 25 C1.34 25 0.68 25 0 25 C0 16.75 0 8.5 0 0 Z " fill="#FDE6D6" transform="translate(775,590)"/>
<path d="M0 0 C2.31 0 4.62 0 7 0 C6.38332793 2.46070116 5.75711607 4.91826521 5.125 7.375 C4.95097656 8.07367187 4.77695312 8.77234375 4.59765625 9.4921875 C3.2265625 14.7734375 3.2265625 14.7734375 1 17 C1.66 13.04 2.32 9.08 3 5 C1.68 6.32 0.36 7.64 -1 9 C-0.67 6.03 -0.34 3.06 0 0 Z " fill="#FD7735" transform="translate(968,585)"/>
<path d="M0 0 C2.46968633 2.46968633 3.06997969 4.57488587 4.1875 7.875 C4.55230469 8.92429687 4.91710937 9.97359375 5.29296875 11.0546875 C5.98462433 13.93594885 6.03230681 15.27786612 5 18 C3.125 17.8125 3.125 17.8125 1 17 C-0.3125 14.625 -0.3125 14.625 -1 12 C-0.67 11.01 -0.34 10.02 0 9 C0.99 10.485 0.99 10.485 2 12 C1.34 8.04 0.68 4.08 0 0 Z " fill="#FC7A39" transform="translate(956,587)"/>
<path d="M0 0 C0.99 0 1.98 0 3 0 C3 5.28 3 10.56 3 16 C2.01 16.33 1.02 16.66 0 17 C0 11.39 0 5.78 0 0 Z " fill="#FD8B52" transform="translate(840,586)"/>
<path d="M0 0 C1.98 0 3.96 0 6 0 C6 2.64 6 5.28 6 8 C4.35 8.66 2.7 9.32 1 10 C0 9 0 9 -0.09765625 6.93359375 C-0.08605469 6.10988281 -0.07445312 5.28617188 -0.0625 4.4375 C-0.05347656 3.61121094 -0.04445313 2.78492188 -0.03515625 1.93359375 C-0.02355469 1.29550781 -0.01195312 0.65742187 0 0 Z " fill="#FB793A" transform="translate(1148,576)"/>
<path d="M0 0 C2.86724686 0.57344937 3.8614515 0.8614515 6 3 C6 3.99 6 4.98 6 6 C3.625 6.625 3.625 6.625 1 7 C0.34 6.34 -0.32 5.68 -1 5 C-3.32275177 4.59952556 -5.65739357 4.2602896 -8 4 C-7.34 3.34 -6.68 2.68 -6 2 C-3.375 2.375 -3.375 2.375 -1 3 C-0.67 2.01 -0.34 1.02 0 0 Z " fill="#FC7A3B" transform="translate(1133,586)"/>
<path d="M0 0 C1.9375 0.75 1.9375 0.75 4 2 C4.75 4.125 4.75 4.125 5 6 C2.125 6.625 2.125 6.625 -1 7 C-1.66 6.34 -2.32 5.68 -3 5 C-4.98821313 4.60235737 -6.98944339 4.26224651 -9 4 C-7 2 -7 2 -3.875 1.875 C-2.92625 1.91625 -1.9775 1.9575 -1 2 C-0.67 1.34 -0.34 0.68 0 0 Z " fill="#FC7D3E" transform="translate(605,586)"/>
<path d="M0 0 C1.05609899 3.16829698 1.13055309 3.98519175 0 7 C-1.5625 8.75 -1.5625 8.75 -3 10 C-6.33333333 8.33333333 -9.66666667 6.66666667 -13 5 C-12.67 4.34 -12.34 3.68 -12 3 C-11.34 3.33 -10.68 3.66 -10 4 C-6.54199641 4.41673207 -6.54199641 4.41673207 -3 4 C-1.01760473 2.13875077 -1.01760473 2.13875077 0 0 Z " fill="#FD7C3C" transform="translate(905,604)"/>
<path d="M0 0 C0.33 0 0.66 0 1 0 C0.6875 3.375 0.6875 3.375 0 7 C-3.6441774 9.4294516 -5.71241272 9.16179575 -10 9 C-10 8.67 -10 8.34 -10 8 C-8.02 7.67 -6.04 7.34 -4 7 C-4.99 6.34 -5.98 5.68 -7 5 C-7.66 4.34 -8.32 3.68 -9 3 C-8.43410156 2.86722656 -7.86820313 2.73445312 -7.28515625 2.59765625 C-6.18494141 2.33275391 -6.18494141 2.33275391 -5.0625 2.0625 C-4.33160156 1.88847656 -3.60070312 1.71445312 -2.84765625 1.53515625 C-1.00030102 1.16112431 -1.00030102 1.16112431 0 0 Z " fill="#FC7C3D" transform="translate(837,606)"/>
<path d="M0 0 C0.66 1.32 1.32 2.64 2 4 C2.66 3.34 3.32 2.68 4 2 C4.0270043 3.45823212 4.04639787 4.91660675 4.0625 6.375 C4.07410156 7.18710937 4.08570313 7.99921875 4.09765625 8.8359375 C4 11 4 11 3 13 C2.34 13 1.68 13 1 13 C0.67 13.99 0.34 14.98 0 16 C0 10.72 0 5.44 0 0 Z " fill="#FC8D56" transform="translate(1149,590)"/>
<path d="M0 0 C0.66 1.32 1.32 2.64 2 4 C-3.04615385 8.92307692 -3.04615385 8.92307692 -7.875 9.3125 C-8.90625 9.209375 -9.9375 9.10625 -11 9 C-11 8.67 -11 8.34 -11 8 C-9.02 8 -7.04 8 -5 8 C-5 7.34 -5 6.68 -5 6 C-5.66 5.34 -6.32 4.68 -7 4 C-4.69 2.68 -2.38 1.36 0 0 Z " fill="#FC7B3B" transform="translate(736,606)"/>
<path d="M0 0 C0.66 0.33 1.32 0.66 2 1 C0 5 -2 9 -4 13 C-4.66 12.67 -5.32 12.34 -6 12 C-5.93993922 10.54052295 -5.8511311 9.08220728 -5.75 7.625 C-5.70359375 6.81289063 -5.6571875 6.00078125 -5.609375 5.1640625 C-5 3 -5 3 -3.015625 1.7734375 C-2.35046875 1.51820313 -1.6853125 1.26296875 -1 1 C-0.67 0.67 -0.34 0.34 0 0 Z " fill="#FC8A50" transform="translate(952,592)"/>
<path d="M0 0 C3.68266103 0.59950296 7.34543185 1.24758891 11 2 C10.67 2.99 10.34 3.98 10 5 C7.69 5.33 5.38 5.66 3 6 C0 2.25 0 2.25 0 0 Z " fill="#FD884F" transform="translate(1171,609)"/>
<path d="M0 0 C0.99 0.33 1.98 0.66 3 1 C2.71788123 2.6266848 2.42397625 4.25132896 2.125 5.875 C1.96257813 6.77992188 1.80015625 7.68484375 1.6328125 8.6171875 C1 11 1 11 -1 13 C-3.125 8.375 -3.125 8.375 -2 5 C-1.3400321 3.33066942 -0.67441131 1.6635479 0 0 Z " fill="#FC8A51" transform="translate(969,588)"/>
<path d="M0 0 C0.33 0 0.66 0 1 0 C1.33 2.64 1.66 5.28 2 8 C2.66 7.67 3.32 7.34 4 7 C4 7.66 4 8.32 4 9 C4.99 8.67 5.98 8.34 7 8 C7 8.66 7 9.32 7 10 C6.01 10.33 5.02 10.66 4 11 C4.61277612 13.96175123 5.25372522 15.38058783 7 18 C4.49303771 17.04908327 3.05598755 16.06198622 1.25 14.0625 C-0.63654688 9.44046014 -0.23305871 4.92876009 0 0 Z " fill="#FD7738" transform="translate(555,595)"/>
<path d="M0 0 C1.32 0 2.64 0 4 0 C4 3.63 4 7.26 4 11 C3.01 11.495 3.01 11.495 2 12 C1.87625 11.360625 1.7525 10.72125 1.625 10.0625 C1.41875 9.381875 1.2125 8.70125 1 8 C0.34 7.67 -0.32 7.34 -1 7 C-0.67 4.69 -0.34 2.38 0 0 Z " fill="#FD8B52" transform="translate(938,595)"/>
<path d="M0 0 C2.97 0.495 2.97 0.495 6 1 C6.33 2.98 6.66 4.96 7 7 C6.01 7.66 5.02 8.32 4 9 C2 8 2 8 1.3671875 6.15234375 C1.20476563 5.42144531 1.04234375 4.69054687 0.875 3.9375 C0.70742188 3.20402344 0.53984375 2.47054687 0.3671875 1.71484375 C0.24601563 1.14894531 0.12484375 0.58304688 0 0 Z " fill="#FC874D" transform="translate(932,585)"/>
<path d="M0 0 C1.22589844 0.01353516 1.22589844 0.01353516 2.4765625 0.02734375 C3.41628906 0.04474609 3.41628906 0.04474609 4.375 0.0625 C4.045 1.0525 3.715 2.0425 3.375 3.0625 C2.2303125 2.9696875 2.2303125 2.9696875 1.0625 2.875 C-1.67025312 2.80351915 -1.67025312 2.80351915 -3.4375 4.5625 C-4.0253125 5.305 -4.0253125 5.305 -4.625 6.0625 C-5.615 5.4025 -6.605 4.7425 -7.625 4.0625 C-7.295 3.0725 -6.965 2.0825 -6.625 1.0625 C-4.21954362 -0.14022819 -2.67503047 -0.03821472 0 0 Z " fill="#FD8A52" transform="translate(1128.625,585.9375)"/>
<path d="M0 0 C1.11375 0.185625 2.2275 0.37125 3.375 0.5625 C6.82568861 1.31680657 6.82568861 1.31680657 9 0 C16.46666667 -0.35555556 16.46666667 -0.35555556 20 2 C19.01 2.495 19.01 2.495 18 3 C17.34 2.67 16.68 2.34 16 2 C10.72018196 1.40002068 8.1686599 2.82387817 4 6 C4 4.68 4 3.36 4 2 C2.68 2 1.36 2 0 2 C0 1.34 0 0.68 0 0 Z " fill="#FDFAF3" transform="translate(1201,583)"/>
<path d="M0 0 C0.66 0.99 1.32 1.98 2 3 C1.67 3.99 1.34 4.98 1 6 C-2.46941546 5.54177532 -5.67395049 5.10868317 -9 4 C-8.34 3.67 -7.68 3.34 -7 3 C-7.33 2.34 -7.66 1.68 -8 1 C-5.36 0.67 -2.72 0.34 0 0 Z " fill="#FD8951" transform="translate(733,585)"/>
<path d="M0 0 C4.12892508 3.59957571 5.34196119 5.62601635 6 11 C6.53625 12.0725 7.0725 13.145 7.625 14.25 C8.07875 15.1575 8.5325 16.065 9 17 C8.67 17.66 8.34 18.32 8 19 C6.65929682 16.39939496 5.32726646 13.79495084 4 11.1875 C3.6184375 10.44951172 3.236875 9.71152344 2.84375 8.95117188 C2.4828125 8.23896484 2.121875 7.52675781 1.75 6.79296875 C1.41484375 6.1383667 1.0796875 5.48376465 0.734375 4.80932617 C0 3 0 3 0 0 Z " fill="#108E98" transform="translate(282,515)"/>
<path d="M0 0 C0 1.98 0 3.96 0 6 C-3.28976808 7.09658936 -4.71303767 6.79953138 -8 6 C-7.01 5.34 -6.02 4.68 -5 4 C-5 3.01 -5 2.02 -5 1 C-2 0 -2 0 0 0 Z " fill="#FD884D" transform="translate(633,608)"/>
<path d="M0 0 C2.31 0.33 4.62 0.66 7 1 C5 3 5 3 2.6875 4.25 C-0.66461743 6.43277414 -2.55030069 8.8503866 -5 12 C-5 7.98905773 -3.23899001 6.25671275 -1 3 C-0.67 2.01 -0.34 1.02 0 0 Z " fill="#0B6880" transform="translate(1155,509)"/>
<path d="M0 0 C0.98484375 0.01804687 1.9696875 0.03609375 2.984375 0.0546875 C4.10585937 0.08949219 4.10585937 0.08949219 5.25 0.125 C5.25 0.455 5.25 0.785 5.25 1.125 C4.03763672 1.27195312 4.03763672 1.27195312 2.80078125 1.421875 C-3.23513254 2.26646607 -7.17506265 2.8452199 -11.75 7.125 C-12.74 6.795 -13.73 6.465 -14.75 6.125 C-9.68836567 1.90697139 -6.68145606 -0.15908229 0 0 Z " fill="#F3F7F2" transform="translate(1134.75,467.875)"/>
<path d="M0 0 C0.66 0 1.32 0 2 0 C1.34 4.29 0.68 8.58 0 13 C-0.33 13 -0.66 13 -1 13 C-1.33 10.69 -1.66 8.38 -2 6 C-2.99 6 -3.98 6 -5 6 C-4.67 5.01 -4.34 4.02 -4 3 C-1.9375 2.3125 -1.9375 2.3125 0 2 C0 1.34 0 0.68 0 0 Z " fill="#FD8B53" transform="translate(789,591)"/>
<path d="M0 0 C2.97 0.33 5.94 0.66 9 1 C9 1.66 9 2.32 9 3 C4.38 3.66 -0.24 4.32 -5 5 C-3.74458443 2.48916886 -2.49936512 2.12874554 0 1 C0 0.67 0 0.34 0 0 Z " fill="#FC8B54" transform="translate(659,597)"/>
<path d="M0 0 C1.98 0 3.96 0 6 0 C6 2.64 6 5.28 6 8 C5.67 8 5.34 8 5 8 C5 6.02 5 4.04 5 2 C4.01 2 3.02 2 2 2 C2 3.98 2 5.96 2 8 C1.34 8 0.68 8 0 8 C0 5.36 0 2.72 0 0 Z " fill="#FD7939" transform="translate(618,576)"/>
<path d="M0 0 C0.99 0 1.98 0 3 0 C3 1.32 3 2.64 3 4 C2.030625 4.268125 1.06125 4.53625 0.0625 4.8125 C-0.948125 5.204375 -1.95875 5.59625 -3 6 C-3.33 6.99 -3.66 7.98 -4 9 C-4.33 8.01 -4.66 7.02 -5 6 C-2.75 2.8125 -2.75 2.8125 0 0 Z " fill="#127188" transform="translate(636,415)"/>
<path d="M0 0 C2.97 0.495 2.97 0.495 6 1 C5.67 2.32 5.34 3.64 5 5 C2.625 5.625 2.625 5.625 0 6 C-0.66 5.34 -1.32 4.68 -2 4 C-1.34 4 -0.68 4 0 4 C0 2.68 0 1.36 0 0 Z " fill="#FC8146" transform="translate(1186,606)"/>
<path d="M0 0 C1.32 0 2.64 0 4 0 C5.0625 1.8125 5.0625 1.8125 6 4 C5 7 5 7 3 8 C0 3.375 0 3.375 0 0 Z " fill="#FD8B54" transform="translate(1087,586)"/>
<path d="M0 0 C1.65 0.33 3.3 0.66 5 1 C5.33 2.32 5.66 3.64 6 5 C3 7 3 7 0.3125 6.625 C-0.450625 6.41875 -1.21375 6.2125 -2 6 C-2 5.67 -2 5.34 -2 5 C-0.35 5 1.3 5 3 5 C2.2236068 1.9254644 2.2236068 1.9254644 0 0 Z " fill="#FDF8F0" transform="translate(598,603)"/>
<path d="M0 0 C0.33 0.99 0.66 1.98 1 3 C-0.26418246 3.69965443 -1.53665402 4.38434763 -2.8125 5.0625 C-3.52019531 5.44535156 -4.22789063 5.82820312 -4.95703125 6.22265625 C-7 7 -7 7 -10 6 C-9.34 6 -8.68 6 -8 6 C-7.67 4.35 -7.34 2.7 -7 1 C-4.69 1.33 -2.38 1.66 0 2 C0 1.34 0 0.68 0 0 Z " fill="#FEECDE" transform="translate(1139,590)"/>
<path d="M0 0 C1.670625 0.061875 1.670625 0.061875 3.375 0.125 C3.045 0.785 2.715 1.445 2.375 2.125 C1.42625 2.434375 0.4775 2.74375 -0.5 3.0625 C-3.47189902 4.07294567 -4.68588831 4.75497461 -6.625 7.125 C-5.84042384 2.15601765 -5.49387562 0.18944399 0 0 Z " fill="#FC8B53" transform="translate(1179.625,585.875)"/>
<path d="M0 0 C0.66 0.33 1.32 0.66 2 1 C2 2.32 2 3.64 2 5 C2.99 5.66 3.98 6.32 5 7 C4.67 7.66 4.34 8.32 4 9 C1.36 7.35 -1.28 5.7 -4 4 C-2.68 2.68 -1.36 1.36 0 0 Z " fill="#EEF2EC" transform="translate(966,471)"/>
<path d="M0 0 C0.625 1.8125 0.625 1.8125 1 4 C0.01 5.485 0.01 5.485 -1 7 C-1.99 7 -2.98 7 -4 7 C-4.33 7.99 -4.66 8.98 -5 10 C-4.56802365 5.2482602 -3.67230705 3.07999946 0 0 Z " fill="#FC7F41" transform="translate(790,586)"/>
<path d="M0 0 C2.4375 0.1875 2.4375 0.1875 5 1 C6.3125 3.0625 6.3125 3.0625 7 5 C3.31245243 4.50168276 1.39509338 3.89932357 -1 1 C-0.67 0.67 -0.34 0.34 0 0 Z " fill="#FD8A51" transform="translate(1072,586)"/>
<path d="M0 0 C2.64 0 5.28 0 8 0 C8.33 0.99 8.66 1.98 9 3 C6.29120665 4.35439668 3.99066732 4.06501451 1 4 C0.67 2.68 0.34 1.36 0 0 Z " fill="#FD8D56" transform="translate(660,584)"/>
<path d="M0 0 C1.32 0 2.64 0 4 0 C3.67 1.32 3.34 2.64 3 4 C1.35 4.33 -0.3 4.66 -2 5 C-1.34 3.35 -0.68 1.7 0 0 Z " fill="#FD8347" transform="translate(654,588)"/>
<path d="M0 0 C0.33 1.32 0.66 2.64 1 4 C1.66 4 2.32 4 3 4 C2.67 4.66 2.34 5.32 2 6 C-1 7 -1 7 -3.1875 6.0625 C-3.785625 5.711875 -4.38375 5.36125 -5 5 C-4.360625 4.54625 -3.72125 4.0925 -3.0625 3.625 C-0.90297594 2.16078274 -0.90297594 2.16078274 0 0 Z " fill="#FC8F59" transform="translate(668,607)"/>
<path d="M0 0 C0.33 0.66 0.66 1.32 1 2 C1.66 2.33 2.32 2.66 3 3 C4.0194119 3.98020375 5.02246356 4.97803008 6 6 C4.35 6.33 2.7 6.66 1 7 C-1 4 -1 4 -0.625 1.8125 C-0.41875 1.214375 -0.2125 0.61625 0 0 Z " fill="#FD8A51" transform="translate(1064,606)"/>
<path d="M0 0 C0.99 0 1.98 0 3 0 C3 2.64 3 5.28 3 8 C0.525 7.01 0.525 7.01 -2 6 C-1.34 5.67 -0.68 5.34 0 5 C0 3.35 0 1.7 0 0 Z " fill="#FD8B50" transform="translate(1002,594)"/>
<path d="M0 0 C3.375 -0.125 3.375 -0.125 7 0 C7.66 0.66 8.32 1.32 9 2 C6.36 2.33 3.72 2.66 1 3 C0.67 2.01 0.34 1.02 0 0 Z " fill="#FC8B54" transform="translate(989,611)"/>
<path d="M0 0 C0.33 0.99 0.66 1.98 1 3 C0.2575 2.979375 -0.485 2.95875 -1.25 2.9375 C-3.70462279 2.99328688 -5.66109261 3.3069904 -8 4 C-7.67 3.01 -7.34 2.02 -7 1 C-3.535 0.505 -3.535 0.505 0 0 Z " fill="#FD8B53" transform="translate(804,585)"/>
<path d="M0 0 C0.33 0 0.66 0 1 0 C1 2.97 1 5.94 1 9 C-0.65 9 -2.3 9 -4 9 C-4 8.34 -4 7.68 -4 7 C-3.01 6.67 -2.02 6.34 -1 6 C-0.67 4.02 -0.34 2.04 0 0 Z " fill="#FDE6D4" transform="translate(1147,576)"/>
<path d="M0 0 C2.64 1.98 5.28 3.96 8 6 C4.86650268 7.04449911 4.01031744 6.93423645 1 6 C0.67 4.02 0.34 2.04 0 0 Z " fill="#EEF1EC" transform="translate(786,529)"/>
<path d="M0 0 C0.66 0.99 1.32 1.98 2 3 C1.01 3.99 0.02 4.98 -1 6 C-1.99 5.67 -2.98 5.34 -4 5 C-2.68 3.35 -1.36 1.7 0 0 Z " fill="#0F6F85" transform="translate(1101,463)"/>
<path d="M0 0 C0.33 0.66 0.66 1.32 1 2 C1.66 2 2.32 2 3 2 C2.67 4.64 2.34 7.28 2 10 C-0.4294516 6.3558226 -0.16179575 4.28758728 0 0 Z " fill="#0D8F97" transform="translate(277,494)"/>
</svg>
