<svg id="Layer_1" data-name="Layer 1" xmlns="http://www.w3.org/2000/svg" xmlns:xlink="http://www.w3.org/1999/xlink" viewBox="0 0 13.84 13.84"><defs><style>.cls-1{fill:#fff;}.cls-2{fill:#1c8adb;}.cls-3{mask:url(#mask);}.cls-4{fill:url(#linear-gradient);}</style><mask id="mask" x="0" y="0" width="13.84" height="13.84" maskUnits="userSpaceOnUse"><g transform="translate(-1 -1.04)"><g id="a"><circle class="cls-1" cx="7.92" cy="7.95" r="6.92"/></g></g></mask><linearGradient id="linear-gradient" x1="7.25" y1="9.48" x2="-0.57" y2="1.91" gradientTransform="matrix(1, 0, 0, -1, 0, 18)" gradientUnits="userSpaceOnUse"><stop offset="0" stop-opacity="0.42"/><stop offset="1" stop-opacity="0"/></linearGradient></defs><circle class="cls-2" cx="6.92" cy="6.92" r="6.92"/><g class="cls-3"><path class="cls-4" d="M7.88,5.45A7.18,7.18,0,0,0,3,7.76L1.16,9.59a6.2,6.2,0,0,0,4.82,5L12.5,8.12l.35-.36A7.5,7.5,0,0,0,8,5.45Z" transform="translate(-1 -1.04)"/></g><g class="cls-3"><path class="cls-1" d="M7.88,5.45A7.18,7.18,0,0,0,3,7.76c3.29,3.86,6.57,3.51,9.86,0A7.5,7.5,0,0,0,8,5.45Zm0,.69H8a5.49,5.49,0,0,1,3.49,1.68c-2.38,2.55-4.76,2.8-7.15,0A5.23,5.23,0,0,1,7.89,6.14Zm0,.38A1.48,1.48,0,0,0,6.45,8h0A1.49,1.49,0,0,0,7.93,9.49h0A1.49,1.49,0,0,0,9.41,8h0a1.47,1.47,0,0,0,0-.36L7.93,8s.62-.86.87-1.19a1.44,1.44,0,0,0-.87-.29Z" transform="translate(-1 -1.04)"/></g></svg>